<svg xmlns="http://www.w3.org/2000/svg" xmlns:xlink="http://www.w3.org/1999/xlink" width="429" height="78" viewBox="0 0 429 78">
  <defs>
    <filter id="Rectangle_2" x="0" y="0" width="429" height="78" filterUnits="userSpaceOnUse">
      <feOffset dy="3" input="SourceAlpha"/>
      <feGaussianBlur stdDeviation="3" result="blur"/>
      <feFlood flood-opacity="0.161"/>
      <feComposite operator="in" in2="blur"/>
      <feComposite in="SourceGraphic"/>
    </filter>
    <filter id="Rectangle_2-2" x="0" y="0" width="429" height="78" filterUnits="userSpaceOnUse">
      <feOffset dy="3" input="SourceAlpha"/>
      <feGaussianBlur stdDeviation="3" result="blur-2"/>
      <feFlood flood-opacity="0.161" result="color"/>
      <feComposite operator="out" in="SourceGraphic" in2="blur-2"/>
      <feComposite operator="in" in="color"/>
      <feComposite operator="in" in2="SourceGraphic"/>
    </filter>
  </defs>
  <g id="Group_5" data-name="Group 5" transform="translate(-1598 -120)">
    <g data-type="innerShadowGroup">
      <g transform="matrix(1, 0, 0, 1, 1598, 120)" filter="url(#Rectangle_2)">
        <path id="Rectangle_2-3" data-name="Rectangle 2" d="M0,0H391a20,20,0,0,1,20,20V40a20,20,0,0,1-20,20H20A20,20,0,0,1,0,40V0A0,0,0,0,1,0,0Z" transform="translate(9 6)" fill="#2a2764"/>
      </g>
      <g transform="matrix(1, 0, 0, 1, 1598, 120)" filter="url(#Rectangle_2-2)">
        <path id="Rectangle_2-4" data-name="Rectangle 2" d="M0,0H391a20,20,0,0,1,20,20V40a20,20,0,0,1-20,20H20A20,20,0,0,1,0,40V0A0,0,0,0,1,0,0Z" transform="translate(9 6)" fill="#fff"/>
      </g>
    </g>
    <text id="Contact_Us" data-name="Contact Us" transform="translate(1759 163)" fill="#fff" font-size="20" font-family="Montserrat-Medium, Montserrat" font-weight="500"><tspan x="0" y="0">Contact Us</tspan></text>
  </g>
</svg>
