<svg xmlns="http://www.w3.org/2000/svg" width="47.485" height="26.555" viewBox="0 0 47.485 26.555">
  <g id="menu-Bold" transform="translate(0 -5)">
    <path id="menu-Bold-2" data-name="menu-Bold" d="M90.151,92.707a2.374,2.374,0,0,0-2.374-2.374H56.911a2.374,2.374,0,1,0,0,4.749H87.777a2.374,2.374,0,0,0,2.374-2.375ZM45.04,101.236H87.777a2.374,2.374,0,1,1,0,4.748H45.04a2.374,2.374,0,0,1,0-4.748Zm21.368,10.9H87.777a2.374,2.374,0,1,1,0,4.749H66.408a2.374,2.374,0,1,1,0-4.749Z" transform="translate(-42.666 -85.333)" fill="#2a2764"/>
  </g>
</svg>
