<svg id="Component_7_3" data-name="Component 7 – 3" xmlns="http://www.w3.org/2000/svg" width="38.57" height="38.57" viewBox="0 0 38.57 38.57">
  <rect id="Rectangle_6" data-name="Rectangle 6" width="26" height="27" transform="translate(6.46 6.257)" fill="#29274a"/>
  <g id="instagram_5968982">
    <path id="Path_164" data-name="Path 164" d="M140.341,125.109a6.932,6.932,0,0,0-.43-2.322,4.142,4.142,0,0,0-2.374-2.374,6.932,6.932,0,0,0-2.322-.43c-1.319-.06-1.715-.073-5.053-.073s-3.734.013-5.053.073a6.932,6.932,0,0,0-2.322.43,4.142,4.142,0,0,0-2.374,2.374,6.932,6.932,0,0,0-.43,2.322c-.06,1.319-.073,1.715-.073,5.053s.013,3.734.073,5.053a6.932,6.932,0,0,0,.43,2.322,4.142,4.142,0,0,0,2.374,2.374,6.933,6.933,0,0,0,2.322.43c1.318.06,1.714.073,5.053.073s3.735-.013,5.053-.073a6.933,6.933,0,0,0,2.322-.43,4.142,4.142,0,0,0,2.374-2.374,6.932,6.932,0,0,0,.43-2.322c.06-1.319.073-1.715.073-5.053S140.4,126.428,140.341,125.109Zm-10.179,11.475a6.421,6.421,0,1,1,6.421-6.421A6.421,6.421,0,0,1,130.162,136.583Zm6.675-11.6a1.5,1.5,0,1,1,1.5-1.5A1.5,1.5,0,0,1,136.837,124.987Zm-6.675,1.006a4.168,4.168,0,1,0,4.168,4.168A4.168,4.168,0,0,0,130.162,125.994Z" transform="translate(-110.877 -110.877)" fill="#fff"/>
    <path id="Path_165" data-name="Path 165" d="M19.285,0A19.285,19.285,0,1,0,38.57,19.285,19.286,19.286,0,0,0,19.285,0Zm12.43,24.441a9.177,9.177,0,0,1-.581,3.036,6.4,6.4,0,0,1-3.657,3.657,9.177,9.177,0,0,1-3.036.581c-1.333.061-1.76.075-5.156.075s-3.822-.014-5.156-.075a9.177,9.177,0,0,1-3.036-.581,6.4,6.4,0,0,1-3.657-3.657,9.177,9.177,0,0,1-.581-3.036c-.061-1.333-.075-1.76-.075-5.156s.014-3.822.075-5.156a9.177,9.177,0,0,1,.581-3.036,6.4,6.4,0,0,1,3.657-3.657,9.177,9.177,0,0,1,3.036-.581c1.333-.061,1.76-.075,5.156-.075s3.822.014,5.156.075a9.177,9.177,0,0,1,3.036.581,6.4,6.4,0,0,1,3.657,3.657,9.177,9.177,0,0,1,.581,3.036c.061,1.333.075,1.76.075,5.156S31.776,23.107,31.715,24.441Z" fill="#fff"/>
  </g>
</svg>
