<svg id="Component_8_3" data-name="Component 8 – 3" xmlns="http://www.w3.org/2000/svg" width="38.57" height="38.57" viewBox="0 0 38.57 38.57">
  <rect id="Rectangle_7" data-name="Rectangle 7" width="25" height="27" transform="translate(6.257 6.257)" fill="#29274a"/>
  <g id="youtube_4138177">
    <path id="Path_166" data-name="Path 166" d="M224.2,208.7v8.22l3.326-2.057,3.326-2.057-3.326-2.048Z" transform="translate(-207.641 -193.469)" fill="#fff"/>
    <path id="Path_167" data-name="Path 167" d="M50.285,31A19.285,19.285,0,1,0,69.57,50.285,19.281,19.281,0,0,0,50.285,31ZM61,53.859a3.9,3.9,0,0,1-3.891,3.891H43.462a3.9,3.9,0,0,1-3.891-3.891v-7.14a3.9,3.9,0,0,1,3.891-3.891H57.108A3.9,3.9,0,0,1,61,46.719Z" transform="translate(-31 -31)" fill="#fff"/>
  </g>
</svg>
