<svg id="Group" xmlns="http://www.w3.org/2000/svg" width="15.256" height="27.837" viewBox="0 0 15.256 27.837">
  <path id="Path_10" data-name="Path 10" d="M15.507,11.7A3.808,3.808,0,1,0,11.7,15.507,3.812,3.812,0,0,0,15.507,11.7Zm-6.719,0a2.91,2.91,0,1,1,2.91,2.91A2.914,2.914,0,0,1,8.789,11.7Z" transform="translate(-4.071 -4.071)"/>
  <path id="Path_11" data-name="Path 11" d="M7.628,21.119a.449.449,0,0,0,.352-.171c.3-.375,7.276-9.246,7.276-13.32A7.628,7.628,0,1,0,0,7.628C0,11.7,6.979,20.573,7.276,20.948A.449.449,0,0,0,7.628,21.119ZM7.628.9a6.738,6.738,0,0,1,6.73,6.73c0,3.272-5.3,10.433-6.73,12.307C6.2,18.061.9,10.9.9,7.628A6.738,6.738,0,0,1,7.628.9Z" transform="translate(0 0)"/>
  <path id="Path_12" data-name="Path 12" d="M25.646,41.768H22.352a.449.449,0,0,0,0,.9h3.293a.449.449,0,0,0,0-.9Z" transform="translate(-11.299 -21.547)"/>
  <path id="Path_13" data-name="Path 13" d="M4.695,41.768H1.4a.449.449,0,0,0,0,.9H4.695a.449.449,0,0,0,0-.9Z" transform="translate(-0.491 -21.547)"/>
  <path id="Path_14" data-name="Path 14" d="M15.278,48.842a.449.449,0,0,0-.449.449v3.293a.449.449,0,0,0,.9,0V49.291A.449.449,0,0,0,15.278,48.842Z" transform="translate(-7.65 -25.196)"/>
</svg>
