<svg xmlns="http://www.w3.org/2000/svg" width="24.153" height="16.102" viewBox="0 0 24.153 16.102">
  <g id="mail_546394" transform="translate(0 -85.333)">
    <g id="Group_15" data-name="Group 15" transform="translate(0 85.333)">
      <path id="Path_9" data-name="Path 9" d="M22.915,85.333H1.239A1.242,1.242,0,0,0,0,86.572V100.2a1.242,1.242,0,0,0,1.239,1.239H22.915a1.242,1.242,0,0,0,1.239-1.239V86.572A1.242,1.242,0,0,0,22.915,85.333Zm-.465.929-9.661,7.246a1.295,1.295,0,0,1-1.425,0L1.7,86.262Zm-5.16,7.724,5.264,6.5c.005.007.012.011.017.017H1.582c.006-.006.012-.011.017-.017l5.264-6.5a.465.465,0,0,0-.722-.585L.929,99.841v-13l9.878,7.409a2.217,2.217,0,0,0,2.539,0l9.878-7.409v13L18.012,93.4a.465.465,0,0,0-.722.585Z" transform="translate(0 -85.333)"/>
    </g>
  </g>
</svg>
