<svg xmlns="http://www.w3.org/2000/svg" width="22.219" height="22.245" viewBox="0 0 22.219 22.245">
  <g id="telephone_159844" transform="translate(-0.284 0)">
    <g id="Group_14" data-name="Group 14" transform="translate(0.284 0)">
      <path id="Path_6" data-name="Path 6" d="M16.027,49.5c.1,0,.2.009.3.009a3.485,3.485,0,0,0,2.668-1.149l.018-.018a10.539,10.539,0,0,1,.835-.862c.205-.2.415-.4.611-.607a2.117,2.117,0,0,0-.009-3.151l-2.6-2.6A2.131,2.131,0,0,0,16.3,40.41a2.2,2.2,0,0,0-1.56.7L13.2,42.649c-.137-.078-.278-.146-.415-.214-.173-.087-.333-.169-.474-.255a16.315,16.315,0,0,1-3.908-3.562A9.182,9.182,0,0,1,7.1,36.529c.4-.365.775-.743,1.136-1.113.132-.132.265-.269.4-.406a2.067,2.067,0,0,0,0-3.156L7.344,30.564c-.151-.151-.3-.3-.442-.447-.287-.292-.584-.6-.88-.871a2.152,2.152,0,0,0-1.537-.68,2.243,2.243,0,0,0-1.56.68L1.306,30.86a3.375,3.375,0,0,0-1,2.148,8.074,8.074,0,0,0,.6,3.475,20.338,20.338,0,0,0,3.6,6.011,22.239,22.239,0,0,0,7.384,5.783A11.46,11.46,0,0,0,16.027,49.5ZM5.369,41.778A19.216,19.216,0,0,1,1.958,36.1a6.917,6.917,0,0,1-.538-3,2.234,2.234,0,0,1,.68-1.45l1.61-1.61a1.14,1.14,0,0,1,.78-.36,1.1,1.1,0,0,1,.762.365c.287.269.566.552.857.848.146.151.3.306.452.456L7.85,32.639a.983.983,0,0,1,0,1.578c-.137.137-.274.274-.406.41-.4.406-.775.789-1.19,1.158l-.023.023a.87.87,0,0,0-.223.99c0,.014.009.023.014.036a10.318,10.318,0,0,0,1.523,2.476,17.393,17.393,0,0,0,4.182,3.808,6.45,6.45,0,0,0,.575.315c.173.087.333.169.474.255l.05.027a.953.953,0,0,0,.433.109.915.915,0,0,0,.661-.306L15.539,41.9a1.111,1.111,0,0,1,.771-.374,1.088,1.088,0,0,1,.748.374l2.609,2.609a1.024,1.024,0,0,1-.014,1.592c-.182.2-.374.379-.575.575a11.862,11.862,0,0,0-.908.939,2.351,2.351,0,0,1-1.838.775c-.073,0-.15,0-.223-.009a10.416,10.416,0,0,1-3.721-1.113A20.955,20.955,0,0,1,5.369,41.778Z" transform="translate(-0.284 -27.263)"/>
      <path id="Path_7" data-name="Path 7" d="M254.472,89.108a.557.557,0,1,0-.187,1.1,6.163,6.163,0,0,1,5.021,5.021.558.558,0,0,0,.552.465.68.68,0,0,0,.1-.009.554.554,0,0,0,.456-.643,7.272,7.272,0,0,0-5.938-5.933Z" transform="translate(-242.259 -85.037)"/>
      <path id="Path_8" data-name="Path 8" d="M267.83,10.466a.68.68,0,0,0,.1-.009.554.554,0,0,0,.456-.643,12.026,12.026,0,0,0-9.81-9.805.557.557,0,1,0-.187,1.1A10.918,10.918,0,0,1,267.278,10,.558.558,0,0,0,267.83,10.466Z" transform="translate(-246.172 0)"/>
    </g>
  </g>
</svg>
