<svg id="Component_7_1" data-name="Component 7 – 1" xmlns="http://www.w3.org/2000/svg" width="57.313" height="57.313" viewBox="0 0 57.313 57.313">
  <rect id="Rectangle_6" data-name="Rectangle 6" width="38" height="40" transform="translate(10 9)" fill="#29274a"/>
  <g id="instagram_5968982">
    <path id="Path_164" data-name="Path 164" d="M150.269,127.635a10.3,10.3,0,0,0-.639-3.45,6.155,6.155,0,0,0-3.527-3.527,10.3,10.3,0,0,0-3.45-.639c-1.96-.09-2.548-.109-7.509-.109s-5.549.019-7.509.109a10.3,10.3,0,0,0-3.45.639,6.155,6.155,0,0,0-3.527,3.527,10.3,10.3,0,0,0-.639,3.45c-.09,1.96-.109,2.548-.109,7.509s.019,5.549.109,7.509a10.3,10.3,0,0,0,.639,3.45,6.155,6.155,0,0,0,3.527,3.527,10.3,10.3,0,0,0,3.45.639c1.959.09,2.547.109,7.509.109s5.55-.019,7.509-.109a10.3,10.3,0,0,0,3.45-.639,6.155,6.155,0,0,0,3.527-3.527,10.3,10.3,0,0,0,.639-3.45c.09-1.96.109-2.548.109-7.509S150.359,129.6,150.269,127.635Zm-15.125,17.051a9.542,9.542,0,1,1,9.542-9.542A9.541,9.541,0,0,1,135.144,144.686Zm9.919-17.231a2.23,2.23,0,1,1,2.23-2.23A2.23,2.23,0,0,1,145.063,127.455Zm-9.919,1.5a6.194,6.194,0,1,0,6.194,6.194A6.193,6.193,0,0,0,135.144,128.95Z" transform="translate(-106.487 -106.487)" fill="#fff"/>
    <path id="Path_165" data-name="Path 165" d="M28.657,0A28.657,28.657,0,1,0,57.313,28.657,28.657,28.657,0,0,0,28.657,0Zm18.47,36.318a13.637,13.637,0,0,1-.863,4.511,9.507,9.507,0,0,1-5.435,5.435,13.637,13.637,0,0,1-4.511.863c-1.981.091-2.615.112-7.661.112s-5.68-.021-7.661-.112a13.637,13.637,0,0,1-4.511-.863,9.507,9.507,0,0,1-5.435-5.435,13.637,13.637,0,0,1-.863-4.511c-.091-1.981-.112-2.615-.112-7.661s.021-5.68.112-7.661a13.637,13.637,0,0,1,.863-4.511,9.507,9.507,0,0,1,5.435-5.435A13.637,13.637,0,0,1,21,10.187c1.981-.091,2.615-.112,7.661-.112s5.68.021,7.661.112a13.637,13.637,0,0,1,4.511.863,9.507,9.507,0,0,1,5.435,5.435A13.637,13.637,0,0,1,47.127,21c.091,1.981.112,2.615.112,7.661S47.217,34.336,47.127,36.318Z" fill="#fff"/>
  </g>
</svg>
