<svg id="Component_8_1" data-name="Component 8 – 1" xmlns="http://www.w3.org/2000/svg" width="57.313" height="57.313" viewBox="0 0 57.313 57.313">
  <rect id="Rectangle_7" data-name="Rectangle 7" width="38" height="40" transform="translate(9 9)" fill="#29274a"/>
  <g id="youtube_4138177">
    <path id="Path_166" data-name="Path 166" d="M224.2,208.7v12.214l4.942-3.057,4.942-3.057-4.942-3.044Z" transform="translate(-199.594 -186.068)" fill="#fff"/>
    <path id="Path_167" data-name="Path 167" d="M59.657,31A28.657,28.657,0,1,0,88.313,59.657,28.651,28.651,0,0,0,59.657,31Zm15.92,33.968a5.794,5.794,0,0,1-5.782,5.782H49.519a5.794,5.794,0,0,1-5.782-5.782V54.358a5.794,5.794,0,0,1,5.782-5.782H69.795a5.794,5.794,0,0,1,5.782,5.782Z" transform="translate(-31 -31)" fill="#fff"/>
  </g>
</svg>
