<svg id="Group" xmlns="http://www.w3.org/2000/svg" width="53.162" height="97" viewBox="0 0 53.162 97">
  <path id="Path_10" data-name="Path 10" d="M34.431,21.161a13.27,13.27,0,1,0-13.27,13.27A13.285,13.285,0,0,0,34.431,21.161Zm-23.411,0A10.141,10.141,0,1,1,21.161,31.3,10.153,10.153,0,0,1,11.02,21.161Z" transform="translate(5.421 5.421)" fill="#fff"/>
  <path id="Path_11" data-name="Path 11" d="M26.581,73.59A1.566,1.566,0,0,0,27.808,73c1.035-1.308,25.354-32.217,25.354-46.414A26.581,26.581,0,1,0,0,26.582C0,40.779,24.318,71.687,25.354,73A1.565,1.565,0,0,0,26.581,73.59Zm0-70.461A23.479,23.479,0,0,1,50.033,26.582c0,11.4-18.464,36.354-23.452,42.885C21.593,62.935,3.129,37.984,3.129,26.582A23.479,23.479,0,0,1,26.581,3.129Z" fill="#fff"/>
  <path id="Path_12" data-name="Path 12" d="M34.944,41.768H23.468a1.565,1.565,0,0,0,0,3.129H34.944a1.565,1.565,0,0,0,0-3.129Z" transform="translate(15.047 28.693)" fill="#fff"/>
  <path id="Path_13" data-name="Path 13" d="M13.993,41.768H2.517a1.565,1.565,0,0,0,0,3.129H13.993a1.565,1.565,0,0,0,0-3.129Z" transform="translate(0.654 28.693)" fill="#fff"/>
  <path id="Path_14" data-name="Path 14" d="M16.394,48.842a1.564,1.564,0,0,0-1.564,1.564V61.883a1.564,1.564,0,0,0,3.129,0V50.407A1.564,1.564,0,0,0,16.394,48.842Z" transform="translate(10.187 33.553)" fill="#fff"/>
</svg>
