<svg xmlns="http://www.w3.org/2000/svg" width="81" height="54" viewBox="0 0 81 54">
  <g id="mail_546394" transform="translate(0 -85.333)">
    <g id="Group_15" data-name="Group 15" transform="translate(0 85.333)">
      <path id="Path_9" data-name="Path 9" d="M76.846,85.333H4.154A4.166,4.166,0,0,0,0,89.487v45.692a4.166,4.166,0,0,0,4.154,4.154H76.846A4.166,4.166,0,0,0,81,135.179V89.487A4.166,4.166,0,0,0,76.846,85.333Zm-1.559,3.115-32.4,24.3a4.343,4.343,0,0,1-4.779,0l-32.4-24.3Zm-17.306,25.9L75.635,136.16c.018.022.039.038.058.058H5.306c.019-.021.04-.036.058-.058l17.654-21.808a1.558,1.558,0,0,0-2.422-1.961L3.115,133.986V90.4L36.242,115.24a7.435,7.435,0,0,0,8.515,0L77.884,90.4v43.59L60.4,112.391a1.558,1.558,0,0,0-2.422,1.961Z" transform="translate(0 -85.333)" fill="#fff"/>
    </g>
  </g>
</svg>
