<svg xmlns="http://www.w3.org/2000/svg" width="66" height="66.077" viewBox="0 0 66 66.077">
  <g id="telephone_159844" transform="translate(-0.284 0)">
    <g id="Group_14" data-name="Group 14" transform="translate(0.284 0)">
      <path id="Path_6" data-name="Path 6" d="M47.048,90.746c.3.014.583.027.881.027a10.351,10.351,0,0,0,7.925-3.414l.054-.054a31.3,31.3,0,0,1,2.479-2.56c.61-.583,1.233-1.179,1.815-1.8,2.777-2.9,2.764-6.57-.027-9.361l-7.722-7.722a6.329,6.329,0,0,0-4.592-2.113,6.528,6.528,0,0,0-4.633,2.086L38.663,70.4c-.406-.23-.826-.434-1.233-.637-.515-.257-.989-.5-1.409-.759a48.462,48.462,0,0,1-11.61-10.58,27.274,27.274,0,0,1-3.888-6.2c1.192-1.084,2.3-2.208,3.373-3.305.393-.393.786-.8,1.192-1.206,2.9-2.9,2.9-6.489,0-9.374L21.255,34.5c-.447-.447-.881-.894-1.314-1.328-.853-.867-1.734-1.775-2.615-2.587a6.394,6.394,0,0,0-4.565-2.018,6.662,6.662,0,0,0-4.633,2.018l-4.809,4.8a10.026,10.026,0,0,0-2.98,6.381A23.983,23.983,0,0,0,2.127,52.083a60.413,60.413,0,0,0,10.7,17.855A66.058,66.058,0,0,0,34.761,87.116,34.039,34.039,0,0,0,47.048,90.746ZM15.389,67.811A57.079,57.079,0,0,1,5.256,50.932a20.546,20.546,0,0,1-1.6-8.9,6.635,6.635,0,0,1,2.018-4.308l4.782-4.782a3.386,3.386,0,0,1,2.317-1.07,3.259,3.259,0,0,1,2.262,1.084c.853.8,1.68,1.639,2.547,2.52.433.447.881.908,1.341,1.355l3.834,3.834c1.571,1.571,1.571,3.116,0,4.687-.406.406-.813.813-1.206,1.219-1.192,1.206-2.3,2.344-3.536,3.441l-.068.068a2.584,2.584,0,0,0-.664,2.94c.014.041.027.068.041.108a30.65,30.65,0,0,0,4.525,7.356A51.666,51.666,0,0,0,34.273,71.794a19.163,19.163,0,0,0,1.707.935c.515.257.989.5,1.409.759.054.027.095.054.149.081a2.832,2.832,0,0,0,1.287.325,2.719,2.719,0,0,0,1.964-.908L45.6,68.177a3.3,3.3,0,0,1,2.289-1.111,3.231,3.231,0,0,1,2.222,1.111l7.749,7.749c1.9,1.9,1.03,3.6-.041,4.728-.542.583-1.111,1.124-1.707,1.707a35.234,35.234,0,0,0-2.7,2.791,6.983,6.983,0,0,1-5.459,2.3c-.217,0-.447-.014-.664-.027a30.939,30.939,0,0,1-11.054-3.305A62.246,62.246,0,0,1,15.389,67.811Z" transform="translate(-0.284 -24.696)" fill="#fff"/>
      <path id="Path_7" data-name="Path 7" d="M255.754,89.123a1.656,1.656,0,1,0-.555,3.265A18.307,18.307,0,0,1,270.114,107.3a1.657,1.657,0,0,0,1.639,1.382,2.022,2.022,0,0,0,.284-.027,1.646,1.646,0,0,0,1.355-1.91,21.6,21.6,0,0,0-17.638-17.624Z" transform="translate(-219.475 -77.03)" fill="#fff"/>
      <path id="Path_8" data-name="Path 8" d="M287.354,31.086a2.022,2.022,0,0,0,.284-.027,1.646,1.646,0,0,0,1.355-1.91A35.723,35.723,0,0,0,259.854.023a1.656,1.656,0,0,0-.555,3.265A32.43,32.43,0,0,1,285.715,29.7,1.657,1.657,0,0,0,287.354,31.086Z" transform="translate(-223.02 0)" fill="#fff"/>
    </g>
  </g>
</svg>
