<svg xmlns="http://www.w3.org/2000/svg" width="874.259" height="994.148" viewBox="0 0 874.259 994.148">
  <g id="_5170" data-name="5170" transform="translate(-1 -1)" opacity="0.24">
    <path id="Path_4104" data-name="Path 4104" d="M1176.974,986.4a35.725,35.725,0,0,1-5.093-6.2c-1.588-2.741-3.548-3.762-6.724-3.812-15.278-.241-30.548-.732-45.818-1.123a17.711,17.711,0,0,0-2.04.256,40.38,40.38,0,0,0,1.843,3.926c7.65,12.513,15.358,24.985,22.978,37.516,1.377,2.266,2.994,3.482,5.807,3.5,9.457.066,18.913.364,28.7.532a5.915,5.915,0,0,1,.342,2.579c-10.178-.022-20.363-.219-30.526-.758-1.778-.095-4.218-1.137-5.093-2.535-9.435-14.964-18.614-30.09-27.86-45.178-.306-.5-.5-1.072-1.005-2.2a36.035,36.035,0,0,1,4-.368c16.844.407,33.688.887,50.539,1.253a6.376,6.376,0,0,1,5.967,3.329,24.88,24.88,0,0,0,3.716,4.551A26.374,26.374,0,0,1,1176.974,986.4Z" transform="translate(-301.715 -143.836)" fill="#36c4da"/>
    <path id="Path_4105" data-name="Path 4105" d="M1177.031,859.618c-9.952.487-19.9.594-29.849.976a5.887,5.887,0,0,0-4.153,2.256c-8.386,13.354-16.589,26.825-24.829,40.277a14.385,14.385,0,0,0-.787,2.2,24.243,24.243,0,0,0,3.205.358c14.68-.395,29.361-.948,44.041-1.158,3.614-.052,5.916-1.138,7.577-4.328a33.573,33.573,0,0,1,4.546-6.142,30.769,30.769,0,0,1,.248,4.878,27.074,27.074,0,0,1-3.934,4.58c-1.559,1.335-3.351,3.3-5.1,3.37-17.915.683-35.844,1.037-53.767,1.467a7.482,7.482,0,0,1-1.53-.433,37.228,37.228,0,0,1,1.647-3.445c8.728-14.252,17.522-28.457,26.177-42.751a7.21,7.21,0,0,1,6.768-3.853c9.69-.158,19.372-.578,29.4-.883A6.312,6.312,0,0,1,1177.031,859.618Z" transform="translate(-301.772 -141.5)" fill="#33c6da"/>
    <path id="Path_4106" data-name="Path 4106" d="M1176.952,754.2a52.193,52.193,0,0,1-5.34-7,6.342,6.342,0,0,0-5.814-3.552c-15.146-.312-30.286-.715-45.432-1.067-.932-.022-1.872.117-3.5.229,1.042,1.848,1.792,3.293,2.645,4.68,7.533,12.287,15.132,24.535,22.585,36.867a6.319,6.319,0,0,0,5.887,3.353c9.449.24,18.884.691,28.646,1.058a6.577,6.577,0,0,1,.321,2.618c-7.111-.077-14.294-1.235-21.317-.621-9.588.836-15.2-2.6-19.714-11.185-6.644-12.632-14.76-24.485-22.235-36.677-.43-.7-.75-1.47-1.275-2.51a11.5,11.5,0,0,1,2.542-.579c17.332.425,34.672.919,52,1.324a6.458,6.458,0,0,1,6.163,3.646,23.972,23.972,0,0,0,3.57,4.678A26.663,26.663,0,0,1,1176.952,754.2Z" transform="translate(-301.694 -122.111)" fill="#33c2d9"/>
    <path id="Path_4107" data-name="Path 4107" d="M1176.944,521.352c-1.967-2.284-3.8-5-5.96-7.438-.991-1.126-2.579-2.379-3.941-2.432-15.86-.608-31.721-1-47.582-1.437-.6-.017-1.2.066-2.382.136a28.769,28.769,0,0,0,1.355,2.95c7.883,12.918,15.831,25.8,23.671,38.746a6.5,6.5,0,0,0,6.185,3.463c9.325.054,18.651.391,28.311.6a6.058,6.058,0,0,1,.342,2.6c-9.814-.042-19.634-.486-29.455-.647-3.257-.054-5.362-1.1-7.089-3.952-8.641-14.324-17.471-28.539-26.213-42.8-.561-.911-1-1.895-1.807-3.443,1.945-.135,3.424-.358,4.9-.322,16.123.4,32.253.94,48.383,1.195,3.686.058,6.28,1.041,7.934,4.443a13.6,13.6,0,0,0,3.089,3.638A26.051,26.051,0,0,1,1176.944,521.352Z" transform="translate(-301.685 -83.719)" fill="#30b5d5"/>
    <path id="Path_4108" data-name="Path 4108" d="M1177.047,626.693c-9.7.566-19.394.717-29.076,1.229a7.213,7.213,0,0,0-5.093,2.617c-8.488,13.421-16.713,27.01-25,40.558a14.406,14.406,0,0,0-.714,1.93c1.632,0,2.885.028,4.138,0,14.666-.388,29.339-.856,44.012-1.121,3.162-.058,5.209-1.1,6.681-3.928a41.477,41.477,0,0,1,4.808-6.841,30.7,30.7,0,0,1,.248,4.875,32.951,32.951,0,0,1-4.226,5.281c-1.311,1.223-2.972,2.852-4.524,2.909-17.587.649-35.182,1.033-52.776,1.475-.721.018-1.435-.1-2.761-.2a23.114,23.114,0,0,1,1.268-2.98q13.453-22.058,26.956-44.093a6.482,6.482,0,0,1,6.047-3.229c9.828-.154,19.649-.469,29.747-.913A6.17,6.17,0,0,1,1177.047,626.693Z" transform="translate(-301.788 -103.026)" fill="#32bcd7"/>
    <path id="Path_4109" data-name="Path 4109" d="M1176.99,394.41c-10.3.492-20.6.632-30.905.947a4.211,4.211,0,0,0-2.892,1.793q-12.764,20.559-25.332,41.244a6.552,6.552,0,0,0-.43,1.583,9.811,9.811,0,0,0,2.127.458c15.656-.412,31.306-.781,46.955-1.408,1.6-.063,3.475-1.4,4.6-2.692,2.047-2.345,3.628-5.1,5.639-7.531a24.559,24.559,0,0,1,.233,4.211,31.934,31.934,0,0,1-4.233,5.506c-1.4,1.317-3.2,3.031-4.881,3.094-17.82.67-35.648,1.047-53.475,1.488a10.68,10.68,0,0,1-1.85-.372c.867-1.695,1.515-3.2,2.36-4.575,8.495-13.85,17.092-27.64,25.485-41.55a7.513,7.513,0,0,1,7.038-4.064c9.69-.208,19.372-.7,29.31-1.279A11.536,11.536,0,0,1,1176.99,394.41Z" transform="translate(-301.731 -64.489)" fill="#30b2d4"/>
    <path id="Path_4110" data-name="Path 4110" d="M1176.985,1091.688c-9.573.663-19.139,1.137-28.719,1.348a6.8,6.8,0,0,0-6.375,3.781c-7.242,12.057-14.695,23.991-22.068,35.968-.925,1.515-1.8,3.06-3.053,5.187,1.851.1,2.994.24,4.131.211,14.789-.35,29.586-.772,44.383-1.049a6.843,6.843,0,0,0,6.637-4.08,43,43,0,0,1,4.808-6.892,29.144,29.144,0,0,1,.255,4.838,34.3,34.3,0,0,1-4.218,5.369c-1.3,1.253-2.951,2.973-4.5,3.023-17.93.583-35.866.9-53.8,1.26a10.713,10.713,0,0,1-1.938-.474c2.229-3.774,4.247-7.278,6.36-10.731,7.213-11.781,14.5-23.518,21.652-35.335a6.9,6.9,0,0,1,6.448-3.737c9.814-.16,19.62-.619,29.71-1.137A5.986,5.986,0,0,1,1176.985,1091.688Z" transform="translate(-301.726 -175.515)" fill="#3cbbda"/>
    <path id="Path_4111" data-name="Path 4111" d="M1177.02,289.234c-1.85-2.245-3.5-5-5.624-7.3-1.333-1.444-3.351-3.088-5.122-3.161-15.263-.622-30.541-.913-45.818-1.279a29.076,29.076,0,0,0-3.147.331,37.7,37.7,0,0,0,1.719,3.678c7.708,12.618,15.489,25.191,23.146,37.84a6.4,6.4,0,0,0,5.887,3.416c9.449.246,18.891.668,28.646,1.031a3.63,3.63,0,0,1,.313,1.92c-10.178.023-20.356-.11-30.519-.591a7.164,7.164,0,0,1-5.078-2.583c-9.362-14.853-18.483-29.86-27.648-44.839a19.887,19.887,0,0,1-1.115-2.749c1.843,0,3.249-.031,4.655,0,16.589.42,33.185.892,49.782,1.235a6.371,6.371,0,0,1,6.12,3.651,24.158,24.158,0,0,0,3.541,4.68A26.262,26.262,0,0,1,1177.02,289.234Z" transform="translate(-301.761 -45.304)" fill="#2ea8d1"/>
    <path id="Path_4112" data-name="Path 4112" d="M1177.044,161.675c-9.945.543-19.889.707-29.82,1.144a5.934,5.934,0,0,0-4.189,2.25c-8.575,13.666-16.953,27.452-25.375,41.215a6.7,6.7,0,0,0-.357,1.5c1.246.07,2.368.211,3.482.183,14.564-.357,29.12-.858,43.684-1.033,3.92-.047,6.353-1.4,8.021-4.9a41.255,41.255,0,0,1,4.313-6.5,28.672,28.672,0,0,1,.24,4.721,35.438,35.438,0,0,1-4.306,5.911c-1.26,1.263-2.994,2.83-4.561,2.881-17.944.586-35.9.909-53.854,1.29a9.579,9.579,0,0,1-1.574-.337c.641-1.258,1.129-2.4,1.771-3.45,8.735-14.277,17.514-28.523,26.206-42.821a6.771,6.771,0,0,1,6.222-3.587c9.821-.182,19.642-.529,29.783-.954A5.711,5.711,0,0,1,1177.044,161.675Z" transform="translate(-301.786 -42.942)" fill="#2ea2cf"/>
    <path id="Path_4113" data-name="Path 4113" d="M1176.982,56.329c-1.953-2.323-3.8-5.049-5.9-7.552-.925-1.093-2.353-2.427-3.6-2.472-16.582-.607-33.171-1-50.547-1.476.736,1.522,1.129,2.557,1.7,3.486,7.839,12.814,15.751,25.586,23.518,38.44a6.48,6.48,0,0,0,6.164,3.5c9.333.065,18.658.394,28.326.623a6.234,6.234,0,0,1,.342,2.624c-10.047-.126-20.093-.608-30.147-.917-2.659-.082-4.532-.81-5.989-3.209-8.917-14.717-17.951-29.362-26.934-44.039-.437-.705-.75-1.478-1.392-2.75a35.175,35.175,0,0,1,3.745-.329c16.975.423,33.943.909,50.911,1.294,2.55.058,4.379.866,5.661,3.148a45.34,45.34,0,0,0,3.912,5.485A23.364,23.364,0,0,1,1176.982,56.329Z" transform="translate(-301.723 -11.2)" fill="#2c9bcd"/>
    <path id="Path_4114" data-name="Path 4114" d="M842.325,1c-1.594,3.784-3.618,7.513-5.318,11.384a5.69,5.69,0,0,0-.251,4.291c7.479,14.143,15.135,28.191,22.759,42.257a13.433,13.433,0,0,0,1.15,1.468,22.265,22.265,0,0,0,1.676-2.3c7.414-13.626,14.854-27.24,22.117-40.947a6.024,6.024,0,0,0,.047-4.571c-1.6-3.778-3.631-7.377-5.471-11.315A8,8,0,0,1,881.679,1c2.162,3.916,4.118,7.8,5.846,11.774a4.835,4.835,0,0,1,.244,3.623c-8.66,16.258-17.451,32.445-26.549,49.268a32.845,32.845,0,0,1-2.259-3.094C850.6,47.381,842.223,32.2,834,16.929a5.731,5.731,0,0,1,.015-4.333c1.571-3.785,3.512-7.415,5.139-11.351A11.948,11.948,0,0,1,842.325,1Z" transform="translate(-226.005)" fill="#32bcd7"/>
    <path id="Path_4115" data-name="Path 4115" d="M439.138,1c-1.81,3.944-3.993,7.853-5.984,11.858a4.22,4.22,0,0,0-.312,3.274c7.908,14.825,15.939,29.585,24.3,45.018,2.422-4.38,4.571-8.2,6.657-12.053,5.648-10.43,11.212-20.907,16.951-31.287a5.459,5.459,0,0,0-.034-6.046c-1.939-3.347-3.614-6.847-5.489-10.523A7.787,7.787,0,0,1,477.764,1c2.272,3.884,4.339,7.728,6.177,11.678a4.782,4.782,0,0,1,.321,3.639c-8.571,16.038-17.278,32-25.971,47.976-.157.288-.5.476-1.188,1.108-2.9-5.069-5.784-9.922-8.493-14.87-6-10.953-11.866-21.976-17.888-32.915a5.212,5.212,0,0,1,.046-5.709,114.866,114.866,0,0,0,5.122-10.646A12.114,12.114,0,0,1,439.138,1Z" transform="translate(-116.423 0)" fill="#52a3da"/>
    <path id="Path_4116" data-name="Path 4116" d="M72.341,1176.909c1.487-3.439,3.465-6.79,4.954-10.345.671-1.6,1.111-4.007.387-5.377-7.585-14.367-15.426-28.6-23.21-42.868-.1-.182-.365-.277-.879-.641-.636.962-1.34,1.872-1.881,2.863-7.116,13.114-14.155,26.264-21.351,39.334-1.458,2.645-1.528,4.8.091,7.409a74.29,74.29,0,0,1,4.468,9.347,4.168,4.168,0,0,1-1.938.277,110.834,110.834,0,0,1-5.824-10.95c-.563-1.26-.871-3.22-.285-4.32C35.35,1145.705,44,1129.859,52.618,1114a18.073,18.073,0,0,1,1.326-1.749c2.962,5.406,5.746,10.455,8.5,15.526,5.78,10.644,11.483,21.339,17.351,31.932,1.525,2.754,1.61,5.056-.156,7.752a71.331,71.331,0,0,0-4.756,9.194A7.422,7.422,0,0,1,72.341,1176.909Z" transform="translate(-6.937 -181.761)" fill="#b74b8d"/>
    <path id="Path_4117" data-name="Path 4117" d="M879.336,1176.947c1.581-3.665,3.587-7.264,5.25-11.023a5.694,5.694,0,0,0,.235-4.32c-7.682-14.44-15.54-28.792-23.366-43.167-.1-.182-.363-.277-.9-.663-.634.962-1.327,1.88-1.869,2.87-7.2,13.194-14.334,26.424-21.581,39.589a6.192,6.192,0,0,0,.149,6.79,98.9,98.9,0,0,1,4.654,9.646,4.133,4.133,0,0,1-1.933.277,108.823,108.823,0,0,1-5.855-10.979,5.755,5.755,0,0,1-.248-4.379c8.6-16.152,17.378-32.216,26.127-48.3.148-.27.49-.444,1.029-.9,3.193,5.872,6.3,11.584,9.406,17.3,5.434,10.018,10.788,20.079,16.341,30.031,1.548,2.769,1.578,5.071-.124,7.752a81.908,81.908,0,0,0-4.759,9.216A7.4,7.4,0,0,1,879.336,1176.947Z" transform="translate(-225.993 -181.799)" fill="#5e98da"/>
    <path id="Path_4118" data-name="Path 4118" d="M476.15,1176.966c1.5-3.694,3.4-7.329,4.971-11.1.527-1.268.809-3.176.227-4.277-7.626-14.36-15.427-28.625-23.193-42.9a15.54,15.54,0,0,0-1.1-1.479c-3.549,6.521-6.966,12.786-10.373,19.059-4.285,7.89-8.491,15.831-12.877,23.663a6.881,6.881,0,0,0,.122,7.5c1.692,2.929,3.11,6.01,4.72,9.282a3.833,3.833,0,0,1-1.84.255,123.417,123.417,0,0,1-6.314-11.169,5.1,5.1,0,0,1-.279-3.978c8.55-16.021,17.252-31.962,25.935-47.909a10.605,10.605,0,0,1,1.3-1.45c3.171,5.785,6.2,11.256,9.18,16.749,5.545,10.214,11.007,20.472,16.632,30.65,1.439,2.6,1.688,4.794-.018,7.4a105.627,105.627,0,0,0-5.151,9.457A4.68,4.68,0,0,1,476.15,1176.966Z" transform="translate(-116.431 -181.818)" fill="#8f6adb"/>
    <path id="Path_4119" data-name="Path 4119" d="M35.366,1c-1.619,3.782-3.683,7.5-5.354,11.383A6.1,6.1,0,0,0,29.893,17c7.721,14.573,15.63,29.046,23.7,43.93a25.343,25.343,0,0,0,1.73-2.419c7.4-13.652,14.734-27.336,22.187-40.957a4.859,4.859,0,0,0,.073-5.351C75.606,8.728,73.91,5.1,72.091,1.265A7.867,7.867,0,0,1,74.708,1c2.092,3.795,3.985,7.55,5.638,11.408.506,1.18.933,2.953.412,3.93-8.547,16.042-17.251,32-25.933,47.971-.151.278-.475.462-1.112,1.061C50.684,60.075,47.678,55,44.842,49.831,39.188,39.526,33.711,29.123,27.974,18.865c-1.583-2.83-1.824-5.169-.057-7.994A89.633,89.633,0,0,0,32.75,1.263,7.9,7.9,0,0,1,35.366,1Z" transform="translate(-6.973 0)" fill="#8474db"/>
    <path id="Path_4130" data-name="Path 4130" d="M1,645.417c.61-.582,1.495-.671,1.787-1.134,3.532-5.59,6.976-11.236,10.869-17.56-4.44,0-8.215,0-12.324.08A5.808,5.808,0,0,1,1,624.262c4.3-.317,8.6-.345,12.9-.368,1.164-.007,2.329,0,4.225,0-3.067,5.05-5.775,9.678-8.654,14.2-2.575,4.043-5.339,7.967-8.247,12.026A29.812,29.812,0,0,1,1,645.417Z" transform="translate(0 -104.929)" fill="#a657b6"/>
    <path id="Path_4131" data-name="Path 4131" d="M1,798.721c3.953-.291,7.907-.291,12.941-.291-4.43-6.638-8.462-12.682-12.718-18.834A24.878,24.878,0,0,1,1,775.428a2.5,2.5,0,0,1,1.714.9c4.923,7.866,9.787,15.77,15.252,24.616-6.035,0-11.206,0-16.671.2A5.6,5.6,0,0,1,1,798.721Z" transform="translate(0 -130.504)" fill="#aa53ab"/>
    <path id="Path_4132" data-name="Path 4132" d="M1,1111.115c1.407-2.062,2.978-3.7,4.187-5.581,2.78-4.313,5.384-8.735,8.449-13.755-4.416,0-8.187,0-12.3.036A3.123,3.123,0,0,1,1,1089.951c5.4-.561,10.81-.852,16.513-1.151a8.315,8.315,0,0,1-.5,1.982q-6.955,11.42-13.99,22.8a6.344,6.344,0,0,1-1.78,1.545A20.5,20.5,0,0,1,1,1111.115Z" transform="translate(0 -175.396)" fill="#b74b8d"/>
    <path id="Path_4133" data-name="Path 4133" d="M1,413.275c.428-.481,1.055-.524,1.255-.838,3.74-5.9,7.429-11.836,11.476-18.32-4.477,0-8.266,0-12.392-.048A6.651,6.651,0,0,1,1,391.4c5.363-.042,10.725.208,16.771.49-3.023,5-5.662,9.585-8.519,14.028-2.467,3.838-5.183,7.516-8.02,11.341A20.857,20.857,0,0,1,1,413.275Z" transform="translate(0 -65.781)" fill="#9d5ecc"/>
    <path id="Path_4134" data-name="Path 4134" d="M1,1030.993c4.007.066,8.014.43,12.021.787.223-.313.446-.634.668-.947-4.058-6.142-8.116-12.276-12.432-18.381A19.366,19.366,0,0,1,1,1008.43a3.854,3.854,0,0,1,2.174,1.311c4.859,7.752,9.633,15.547,14.784,23.911-5.761,0-11.05,0-16.649-.022A6.956,6.956,0,0,1,1,1030.993Z" transform="translate(0 -153.579)" fill="#b74b8d"/>
    <path id="Path_4135" data-name="Path 4135" d="M1,333.7c3.95-.273,7.9-.273,13.019-.273-4.489-6.714-8.52-12.742-12.785-18.856A23.333,23.333,0,0,1,1,310.426a1.734,1.734,0,0,1,1.506.533c5,7.953,9.945,15.94,15.258,24.495-5.8,1.3-10.977.774-16.461.168A3.742,3.742,0,0,1,1,333.7Z" transform="translate(0 -52.138)" fill="#9763d8"/>
    <path id="Path_4136" data-name="Path 4136" d="M1,565.99c3.962.034,7.925.36,11.887.685l.8-.844c-4.085-6.277-8.17-12.554-12.47-18.953A17.778,17.778,0,0,1,1,543.417a3.019,3.019,0,0,1,2.038.97c4.927,7.873,9.772,15.8,14.942,24.2-5.8,0-11.052,0-16.641.012A6.2,6.2,0,0,1,1,565.99Z" transform="translate(0 -91.441)" fill="#a35abf"/>
    <path id="Path_4137" data-name="Path 4137" d="M1,100.721c3.968-.019,7.937.253,13.244.617C9.621,94.234,5.538,87.96,1.228,81.587A24.2,24.2,0,0,1,1,77.428a36.312,36.312,0,0,1,4.388,5.337c4.177,6.608,8.217,13.3,12.635,20.492-5.857,0-11.1,0-16.683.043A5.966,5.966,0,0,1,1,100.721Z" transform="translate(0 -20.747)" fill="#8d6ddb"/>
    <path id="Path_4138" data-name="Path 4138" d="M1,180.447c.532-.522,1.313-.568,1.557-.954,3.663-5.775,7.256-11.6,11.341-18.171-4.625,0-8.426,0-12.563-.069A3.748,3.748,0,0,1,1,159.273C6.47,159,11.94,159,17.982,159c-2.377,3.941-4.506,7.66-6.82,11.259-3.18,4.945-6.5,9.8-9.961,14.831A32.5,32.5,0,0,1,1,180.447Z" transform="translate(0 -42.889)" fill="#8f6adb"/>
    <path id="Path_4139" data-name="Path 4139" d="M1,878.44c.589-.629,1.419-.795,1.729-1.287,3.592-5.713,7.106-11.474,11.208-18.146-4.669.23-8.538.42-12.672.76A6.611,6.611,0,0,1,1,857.292C6.389,857,11.779,857,17.935,857c-4.548,7.4-8.67,14.186-12.894,20.909a31.65,31.65,0,0,1-3.8,4.54A20.459,20.459,0,0,1,1,878.44Z" transform="translate(0 -144.277)" fill="#af51a1"/>
    <path id="Path_4140" data-name="Path 4140" d="M928.936,391.633c12.47.363,24.594.635,36.705,1.177,1.676.075,4,1.043,4.826,2.353,9.608,15.29,18.985,30.723,28.4,46.129a9.7,9.7,0,0,1,.539,1.832c-3.759,0-7.22.075-10.681-.013-14.185-.362-28.365-.864-42.549-1.106a8.4,8.4,0,0,1-7.935-4.532c-8.346-13.931-16.925-27.723-25.409-41.571-.74-1.207-1.4-2.462-2.425-4.274,6.475,0,12.324,0,18.523.006m20.128,3.177h-33.87c8.792,14.27,17.511,28.526,26.418,42.662.646,1.026,2.643,1.638,4.039,1.687,15.526.544,31.057.946,46.59,1.356a11.392,11.392,0,0,0,2.258-.463,19.343,19.343,0,0,0-1.129-2.884c-8.036-13.147-16.043-26.309-24.26-39.343a6.493,6.493,0,0,0-4.422-2.388C959.742,394.985,954.754,395,949.064,394.81Z" transform="translate(-246.861 -64.565)" fill="#33c6da"/>
    <path id="Path_4141" data-name="Path 4141" d="M982.936,535.453c-3.949,6.426-7.552,12.767-11.658,18.765a8.6,8.6,0,0,1-5.767,3.467c-17.1.721-34.212,1.077-51.321,1.523-.944.025-1.893-.111-3.49-.213.719-1.486,1.168-2.652,1.808-3.7,8.79-14.393,17.528-28.82,26.522-43.085a7.98,7.98,0,0,1,5.391-3.44c17.463-.713,34.944-1.079,52.415-1.524a27.9,27.9,0,0,1,3.1.336c-5.8,9.517-11.322,18.587-17,27.872m-50.494,20.629c10.435-.286,20.869-.678,31.306-.792a6.473,6.473,0,0,0,6.158-3.506c7.275-12.047,14.691-24.01,22.035-36.015,1.042-1.695,1.96-3.461,3.133-5.548-1.37-.109-2.069-.232-2.768-.212-15.9.441-31.791.847-47.68,1.453a5.323,5.323,0,0,0-3.542,2.378c-8.354,13.38-16.575,26.843-24.808,40.3a11.92,11.92,0,0,0-.8,1.955C921.064,556.094,926.394,556.094,932.441,556.082Z" transform="translate(-246.939 -83.647)" fill="#36c4da"/>
    <path id="Path_4142" data-name="Path 4142" d="M749.77,92.794c-12.592-.589-9.223,1.62-16.1-9.352-7.728-12.339-15.25-24.808-22.853-37.226-.621-1.013-1.176-2.066-1.989-3.5a18.148,18.148,0,0,1,3.083-.513c17.353.428,34.709.82,52.055,1.467a7.09,7.09,0,0,1,5.026,2.707c9.439,14.988,18.638,30.128,27.893,45.232.308.5.5,1.08,1.163,2.548-16.346-.463-32.134-.909-48.281-1.362m26.358-30.1c-2.737-4.435-5.576-8.812-8.168-13.33a5.518,5.518,0,0,0-5.16-3.2c-11.878-.295-23.75-.777-35.627-1.113-4.3-.121-8.609-.02-13.483-.02a24.5,24.5,0,0,0,1.067,2.611c8.1,13.236,16.123,26.517,24.434,39.618a7.466,7.466,0,0,0,5.306,2.772c14.784.568,29.58.839,44.372,1.176,1.252.029,2.509-.122,4.6-.233C787.5,81.241,781.959,72.192,776.128,62.7Z" transform="translate(-192.142 -11.184)" fill="#36c4da"/>
    <path id="Path_4143" data-name="Path 4143" d="M719.041,210.29c-3.477.007-6.593.007-10.581.007,1.65-2.717,2.983-4.926,4.331-7.127,7.972-13.023,16.009-26.006,23.872-39.094a7.782,7.782,0,0,1,7.331-4.194c16.242-.292,32.481-.812,48.721-1.24,1.522-.04,3.046-.006,5.447-.006-2.554,4.307-4.587,7.836-6.715,11.306-7.095,11.57-14.3,23.072-21.285,34.707-1.884,3.139-4.08,4.518-7.86,4.562-14.3.163-28.6.684-43.261,1.078m40.977-48.054c-4.855.1-9.717.4-14.562.238-3.465-.118-5.6,1.15-7.368,4.113-6.4,10.731-13.024,21.332-19.548,31.991-1.751,2.86-3.45,5.752-5.537,9.235,1.867,0,3.024.027,4.18,0,14.559-.388,29.116-.884,43.678-1.105,3.56-.055,5.793-1.2,7.645-4.3,7.535-12.6,15.3-25.054,22.961-37.578a23.022,23.022,0,0,0,1.212-2.623C781.766,162.2,771.235,162.2,760.017,162.236Z" transform="translate(-192.041 -42.787)" fill="#38c2db"/>
    <path id="Path_4144" data-name="Path 4144" d="M1078.514,604.223c-5.26,9.68-10.4,19.125-15.919,29.295-1.166-1.765-2.011-2.855-2.659-4.05-7.919-14.589-15.744-29.225-23.743-43.768a7.119,7.119,0,0,1,.058-7.76c8.087-14.631,15.992-29.369,23.962-44.063.568-1.043,1.209-2.044,2.237-3.77,2.55,4.612,4.83,8.674,7.06,12.765,6.309,11.6,12.516,23.26,18.949,34.793a7.657,7.657,0,0,1-.065,8.456c-3.4,5.869-6.513,11.9-9.879,18.1M1060.8,538.1c-7.154,13.233-14.236,26.505-21.514,39.666a7.512,7.512,0,0,0-.087,8.135c7.045,12.737,13.922,25.566,20.88,38.352.6,1.1,1.341,2.12,2.215,3.5a20.167,20.167,0,0,0,1.661-2.143c7.358-13.533,14.673-27.093,22.082-40.6,1.341-2.452.969-4.571-.284-6.857-6.469-11.811-12.874-23.653-19.321-35.476-1.231-2.256-2.528-4.475-4.007-7.083C1061.728,536.665,1061.4,537.161,1060.8,538.1Z" transform="translate(-280.7 -83.673)" fill="#33c2d9"/>
    <path id="Path_4145" data-name="Path 4145" d="M844.591,255.147c-3.473-6.424-6.992-12.525-10.066-18.843-.82-1.685-1.062-4.447-.238-6.014,8.071-15.343,16.42-30.539,24.709-45.766.436-.8,1.051-1.507,1.995-2.841,1.753,3.19,3.256,5.895,4.732,8.614q10.67,19.662,21.344,39.323c1.163,2.133,1.7,4.025.372,6.444-8.249,14.974-16.35,30.029-24.52,45.047-.552,1.015-1.268,1.94-2.337,3.553-5.518-10.18-10.694-19.728-15.991-29.518m11.318-59.616c-6.076,11.183-12.09,22.4-18.275,33.521-1.508,2.712-1.687,4.965-.133,7.774,7.1,12.833,14,25.777,21,38.661a33.165,33.165,0,0,0,2.318,3.235,17.264,17.264,0,0,0,1.454-1.849c7.418-13.624,14.791-27.272,22.251-40.873,1.206-2.2.908-4.031-.241-6.123-5.6-10.2-11.094-20.455-16.647-30.681-2.111-3.888-4.279-7.746-6.855-12.4C858.947,190.082,857.557,192.571,855.909,195.531Z" transform="translate(-226.058 -28.585)" fill="#33c6da"/>
    <path id="Path_4146" data-name="Path 4146" d="M974.35,275.509c8.466-.007,16.568-.007,25.128-.007-.5,1.023-.918,2.073-1.5,3.024-8.743,14.272-17.551,28.5-26.207,42.817-1.669,2.76-3.619,4.147-6.956,4.207-17.224.31-34.444.806-51.667,1.222a18.67,18.67,0,0,1-2.35-.312c.809-1.6,1.392-2.988,2.168-4.256,8.48-13.859,17.052-27.662,25.441-41.576,1.821-3.021,3.923-4.389,7.572-4.392,9.337-.005,18.674-.452,28.372-.728m15.06,12.142c1.843-3.056,3.686-6.111,5.85-9.7-1.872-.12-2.922-.267-3.971-.243-14.913.343-29.822.753-44.734,1.036-3.044.058-4.869,1.462-6.384,3.957-7.675,12.637-15.455,25.209-23.18,37.815-.6.975-1.051,2.038-1.642,3.2a8.817,8.817,0,0,0,1.519.323c16.121-.4,32.243-.739,48.356-1.365,1.533-.059,3.512-1.611,4.409-3.024C976.252,309.21,982.656,298.631,989.41,287.651Z" transform="translate(-246.965 -45.381)" fill="#32bcd7"/>
    <path id="Path_4147" data-name="Path 4147" d="M1070.2,776.659c6.477,11.978,12.888,23.683,19.1,35.493a5.763,5.763,0,0,1,.109,4.681c-8.473,15.967-17.128,31.838-25.761,47.721-.211.4-.67.664-1.421,1.375-3.235-5.9-6.375-11.573-9.464-17.275-5.5-10.133-11.081-20.222-16.349-30.475-.911-1.787-1.319-4.755-.459-6.392,8.167-15.579,16.655-30.991,25.069-46.441a22.031,22.031,0,0,1,1.756-2.282c2.579,4.711,4.94,9.032,7.417,13.595m-3.774-1.57c-1.151-2.049-2.3-4.1-3.665-6.514a15.925,15.925,0,0,0-1.6,1.92c-7.548,13.836-15.161,27.639-22.49,41.591-.758,1.449-.4,4.092.422,5.671,5.763,11.077,11.781,22.022,17.726,33,1.763,3.257,3.57,6.491,5.552,10.088.794-1.147,1.326-1.792,1.719-2.515,7.4-13.638,14.739-27.315,22.235-40.9,1.253-2.271.9-4-.226-6.067C1079.587,799.454,1073.146,787.5,1066.422,775.089Z" transform="translate(-280.811 -120.575)" fill="#36c4da"/>
    <path id="Path_4148" data-name="Path 4148" d="M944.375,159.639c7.258.219,14.183.244,21.07.759,1.9.141,4.454,1.255,5.4,2.75,9.512,15.069,18.757,30.308,28.061,45.508a10.786,10.786,0,0,1,.7,1.756c-5.938,0-11.584.106-17.23-.022-12.369-.28-24.742-.562-37.1-1.15-1.979-.094-4.713-1.243-5.7-2.793-9.47-14.952-18.641-30.093-27.882-45.19a10.1,10.1,0,0,1-.654-1.625c11.064,0,22.023,0,33.33.007m42.443,34.127c-5.639-9.2-11.331-18.368-16.876-27.625a6.226,6.226,0,0,0-5.876-3.353c-14.677-.25-29.35-.676-44.024-1.008-1.346-.03-2.7.178-4.38.3a17.627,17.627,0,0,0,.876,2.178c8.092,13.243,16.1,26.537,24.432,39.629,1,1.574,3.705,2.793,5.685,2.894,11.384.58,22.787.809,34.189,1.079,4.619.109,9.245.018,14.571.018C992.369,202.863,989.747,198.534,986.818,193.767Z" transform="translate(-247.033 -43.061)" fill="#32bcd7"/>
    <path id="Path_4149" data-name="Path 4149" d="M928.718,761.454c3.558-5.807,6.806-11.506,10.5-16.9A7.733,7.733,0,0,1,944.4,741.4c17.813-.648,35.64-.988,53.46-1.4a10.831,10.831,0,0,1,1.88.395c-2.841,4.689-5.486,9.115-8.189,13.51-6.652,10.847-13.354,21.665-19.986,32.529-1.327,2.176-2.731,3.884-5.595,3.947-17.82.394-35.64.867-53.459,1.3a14.488,14.488,0,0,1-2.089-.378c6.19-10.1,12.173-19.867,18.295-29.855m29.045,26.593a22.158,22.158,0,0,1,2.544-.02c5.287.546,8.627-1.569,11.357-6.338,6.862-11.983,14.322-23.62,21.527-35.407.6-.978,1.034-2.05,1.69-3.357a23.168,23.168,0,0,0-2.63-.292c-15.518.348-31.027.76-46.541,1.04-2.921.052-4.277,1.8-5.586,3.937q-11.491,18.753-23.016,37.485c-.663,1.082-1.209,2.236-1.6,2.962C929.479,788.055,943.265,788.055,957.763,788.047Z" transform="translate(-246.864 -122.133)" fill="#3eb8da"/>
    <path id="Path_4150" data-name="Path 4150" d="M985.2,650.993c4.94,8.058,9.741,15.891,14.819,24.177a21.313,21.313,0,0,1-3.162.459c-17.58-.464-35.159-.911-52.732-1.546a5.851,5.851,0,0,1-4.163-2.236c-9.636-15.418-19.092-30.948-28.582-46.457-.111-.181-.059-.462-.138-1.23a26.4,26.4,0,0,1,3.674-.413c16.489.4,32.975.931,49.465,1.207A8.011,8.011,0,0,1,972,629.348c4.217,7.221,8.7,14.288,13.2,21.644m-54.559,1.056c3.281,5.387,6.633,10.732,9.809,16.179a6.229,6.229,0,0,0,5.812,3.49c15.526.31,31.047.769,46.573,1.147a9.17,9.17,0,0,0,2.084-.478,11.733,11.733,0,0,0-.627-1.593c-8.24-13.441-16.407-26.928-24.86-40.234a7.6,7.6,0,0,0-5.329-2.773c-8.838-.506-17.7-.664-26.553-.8-7.229-.113-14.46-.023-22.3-.023C920.4,635.367,925.367,643.492,930.645,652.049Z" transform="translate(-247.088 -102.902)" fill="#38c2db"/>
    <path id="Path_4151" data-name="Path 4151" d="M934.236,54.538c8.474-13.442,3.9-10.53,19.339-11.214,13.809-.612,27.642-.762,41.462-1.107,1.282-.032,2.564,0,4.517,0-.889,1.734-1.392,2.917-2.062,4-8.546,13.954-17.2,27.843-25.615,41.874-1.988,3.314-4.356,4.557-8.2,4.618-16.246.258-32.488.832-48.732,1.282-1.3.036-2.607,0-4.916,0,8.327-13.575,16.2-26.4,24.208-39.457m46.441-9.349c-11.637.323-23.27.683-34.9.936a5.684,5.684,0,0,0-5.31,3.006c-7.783,12.852-15.7,25.624-23.541,38.441a38.62,38.62,0,0,0-1.722,3.654c1.34.11,2.053.236,2.762.216,15.027-.407,30.052-.927,45.081-1.18a7.458,7.458,0,0,0,7.006-4.07C977.5,73.847,985.106,61.6,992.64,49.3c.729-1.192,1.326-2.466,2.237-4.169C989.966,45.13,985.66,45.13,980.677,45.189Z" transform="translate(-246.757 -11.184)" fill="#30b2d4"/>
    <path id="Path_4152" data-name="Path 4152" d="M753.432,325.616c-3.023-.127-5.72-.544-8.349-.281-4.378.437-6.81-1.518-8.982-5.16-8.195-13.754-16.684-27.331-25.052-40.98-.688-1.123-1.3-2.293-2.28-4.037,1.69-.09,2.921-.236,4.146-.208,16.984.4,33.97.753,50.947,1.353a7.023,7.023,0,0,1,5.021,2.594c9.569,15.187,18.9,30.525,28.277,45.83a3.649,3.649,0,0,1,.3.9c-14.557,0-29.115,0-44.029-.015M721,277.646h-7.546c.47,1.021.7,1.685,1.056,2.27,8.163,13.351,16.266,26.741,24.625,39.969a7.1,7.1,0,0,0,5,2.652c11.754.568,23.524.85,35.291,1.149,4.4.111,8.8.018,13.568.018a20.5,20.5,0,0,0-1.03-2.494c-8.1-13.249-16.112-26.549-24.454-39.641-1-1.569-3.762-2.749-5.76-2.831C748.418,278.189,735.066,277.987,721,277.646Z" transform="translate(-192.125 -45.31)" fill="#3cbbda"/>
    <path id="Path_4153" data-name="Path 4153" d="M885.884,460.294c2.774,3.617,2.433,6.708.3,10.483-8.042,14.244-15.7,28.7-23.513,43.076-.5.922-1.105,1.787-2.072,3.338-2.515-4.524-4.748-8.459-6.905-12.436-6.588-12.143-13.2-24.275-19.64-36.494a5.717,5.717,0,0,1-.272-4.575c8.437-15.962,17.059-31.827,25.648-47.71a18.318,18.318,0,0,1,1.464-1.821c8.433,15.568,16.647,30.732,24.989,46.138m-37.363-18.8c-3.742,6.939-7.385,13.934-11.28,20.785a5.994,5.994,0,0,0-.068,6.7c5.1,9.094,9.964,18.326,14.939,27.493,2.731,5.034,5.51,10.041,8.411,15.323a13.558,13.558,0,0,0,1.27-1.55c7.669-14.19,15.369-28.364,22.9-42.63a5.318,5.318,0,0,0-.2-4.281c-7.083-13.262-14.311-26.446-21.539-39.629a39.252,39.252,0,0,0-2.693-3.676C856.182,427.479,852.48,434.252,848.521,441.5Z" transform="translate(-225.961 -65.36)" fill="#39bdda"/>
    <path id="Path_4154" data-name="Path 4154" d="M1054.674,387.1c-6.091-11.212-11.977-22.227-18.061-33.132-1.712-3.071-1.865-5.677-.124-8.829,8.094-14.643,16-29.39,23.984-44.092.452-.831,1.049-1.582,1.916-2.869.911,1.358,1.7,2.343,2.288,3.432q11.988,22.051,23.94,44.118c1.2,2.219,1.909,4.145.474,6.746-8.335,15.064-16.472,30.235-24.7,45.36-.51.935-1.158,1.794-2.113,3.254-2.667-4.9-5.078-9.325-7.606-13.99m-.831-68.434c-4.918,9.052-9.77,18.14-14.8,27.133a6.573,6.573,0,0,0-.08,7.124c5.872,10.6,11.591,21.282,17.383,31.93,1.88,3.464,3.788,6.911,5.894,10.734a19.213,19.213,0,0,0,1.7-2.15c7.409-13.627,14.768-27.281,22.214-40.89,1.34-2.45.9-4.58-.343-6.854q-10.557-19.3-21.033-38.635c-.6-1.1-1.377-2.1-2.513-3.807C1059.286,308.693,1056.685,313.437,1053.844,318.667Z" transform="translate(-280.749 -47.018)" fill="#30b5d5"/>
    <path id="Path_4155" data-name="Path 4155" d="M1071.589,81.671c5.792,10.682,11.591,21.06,17.048,31.613.9,1.75,1.18,4.7.321,6.351-8.1,15.465-16.509,30.769-24.851,46.108a25.379,25.379,0,0,1-1.836,2.446c-2.747-4.972-5.326-9.588-7.846-14.239-6.127-11.3-12.312-22.57-18.243-33.969-.823-1.577-1.166-4.226-.4-5.676,8.313-15.765,16.888-31.391,25.4-47.048.284-.515.692-.959,1.45-1.993,3.082,5.629,5.967,10.894,8.954,16.406m-10.477,79.315c.408.548.823,1.1,1.377,1.832a20.5,20.5,0,0,0,1.4-1.926c7.417-13.638,14.782-27.3,22.243-40.919,1.333-2.438,1-4.567-.262-6.862q-10.906-19.957-21.74-39.951a27.707,27.707,0,0,0-1.843-2.564c-.867,1.515-1.537,2.646-2.164,3.8-6.892,12.681-13.7,25.412-20.72,38.019a8.107,8.107,0,0,0,.036,8.808C1046.68,134.269,1053.725,147.421,1061.113,160.986Z" transform="translate(-280.777 -17.445)" fill="#2ea8d1"/>
    <path id="Path_4156" data-name="Path 4156" d="M1037.616,1053.156c-3.169-4.051-2.754-7.606-.35-11.846,7.941-14.025,15.46-28.3,23.161-42.46.51-.943,1.136-1.822,2.12-3.381,2.594,4.634,4.961,8.787,7.249,12.976,6.375,11.715,12.684,23.459,19.088,35.16,1.195,2.186,1.523,4.1.233,6.455-8.393,15.307-16.669,30.679-25.011,46.015a20.808,20.808,0,0,1-1.953,2.4c-8.276-15.3-16.334-30.2-24.538-45.323m42.2-20.742c-5.668-10.455-11.336-20.917-17.288-31.9-1.035,1.778-1.668,2.8-2.237,3.847-6.987,12.9-13.893,25.834-21,38.664a7.53,7.53,0,0,0,0,8.138c6.958,12.633,13.762,25.353,20.647,38.023.656,1.2,1.494,2.3,2.433,3.737a15.978,15.978,0,0,0,1.734-2.076c7.395-13.638,14.848-27.248,22.009-41.01.823-1.588.539-4.284-.211-6.054C1084.294,1040.006,1082.05,1036.5,1079.814,1032.415Z" transform="translate(-280.776 -150.061)" fill="#3eb8da"/>
    <path id="Path_4157" data-name="Path 4157" d="M657.262,165.763c-8.261-15.263-16.365-30.317-24.6-45.3-1.367-2.486-1.541-4.5-.116-7.078,8.2-14.862,16.228-29.82,24.325-44.739.5-.921,1.1-1.788,1.964-3.184.932,1.359,1.671,2.255,2.215,3.257,7.935,14.592,15.774,29.237,23.814,43.77a8.072,8.072,0,0,1,0,8.777c-7.888,14.2-15.562,28.526-23.329,42.8-.686,1.262-1.475,2.469-2.4,4.013-.732-.868-1.243-1.475-1.867-2.314m19.97-36.019c1.676-3.091,3.231-6.256,5.069-9.247a6.3,6.3,0,0,0,.1-7.093c-7.083-12.847-13.99-25.791-20.987-38.686-.652-1.2-1.5-2.3-2.455-3.75a21.074,21.074,0,0,0-1.617,2.128c-7.484,13.733-15.029,27.435-22.3,41.281-.761,1.449-.457,4.077.357,5.632,6.292,12.033,12.823,23.941,19.3,35.874,1.25,2.3,2.605,4.546,4.292,7.478C665.235,151.863,671.108,141.041,677.232,129.744Z" transform="translate(-171.164 -17.498)" fill="#3eb8da"/>
    <path id="Path_4158" data-name="Path 4158" d="M976.866,870.292c7.686,12.512,15.241,24.8,23.321,37.947-2.055,0-3.4.031-4.743,0-16.618-.43-33.232-.89-49.848-1.287-2.743-.066-4.906-.851-6.416-3.327q-13.545-22.209-27.17-44.371a23.791,23.791,0,0,1-1.152-2.623c1.537-.081,2.705-.222,3.868-.192,16.736.435,33.471.949,50.209,1.295,3.141.065,5.273,1.117,6.762,3.9,1.542,2.884,3.345,5.628,5.169,8.661m-3.311-.608a27.662,27.662,0,0,1-2.052-3.433c-1.947-4.612-5.235-6.188-10.3-6.171-11.645.039-23.291-.618-34.938-.937-3.563-.1-7.132-.015-10.671-.015,0,.686-.091.974.012,1.143,8.55,13.972,17.063,27.968,25.77,41.84a5.791,5.791,0,0,0,4.188,2.049c15.044.45,30.092.713,45.14,1,1.239.023,2.492-.184,4.4-.337C987.751,892.845,980.778,881.5,973.555,869.684Z" transform="translate(-246.982 -141.359)" fill="#43b3da"/>
    <path id="Path_4159" data-name="Path 4159" d="M795.314,554.076c.914,1.585,1.693,2.939,2.817,4.891-1.739.109-2.985.285-4.226.251-16.859-.46-33.717-.972-50.577-1.4-2.487-.064-4.365-.71-5.753-3-9.254-15.24-18.6-30.425-27.907-45.633a11.649,11.649,0,0,1-.575-1.556,37.729,37.729,0,0,1,3.866-.3c16.86.422,33.719.91,50.58,1.294a6.77,6.77,0,0,1,6.177,3.647c8.427,13.9,16.963,27.728,25.6,41.812M726.34,531.639c4.106,6.722,8.24,13.428,12.3,20.176a6.441,6.441,0,0,0,5.86,3.512c13.693.316,27.383.8,41.074,1.2,2.494.073,4.991.01,7.894.01a20.161,20.161,0,0,0-.9-2.01c-8.359-13.638-16.671-27.306-25.2-40.84a6.224,6.224,0,0,0-4.433-2.242c-13.077-.579-26.164-.946-39.25-1.327-3.3-.1-6.6-.015-10.581-.015C717.709,517.594,721.882,524.393,726.34,531.639Z" transform="translate(-192.212 -83.664)" fill="#4aabda"/>
    <path id="Path_4160" data-name="Path 4160" d="M884.181,706.96c-7.74,14.253-15.365,28.263-23.473,43.161-1.877-3.418-3.308-6-4.715-8.589-7.116-13.1-14.2-26.222-21.363-39.3-1.322-2.413-1.7-4.559-.278-7.153,8.276-15.092,16.426-30.254,24.635-45.382a28.875,28.875,0,0,1,1.72-2.44c1.025,1.583,1.939,2.811,2.664,4.143,7.879,14.481,15.692,29,23.623,43.45,1.371,2.5,1.588,4.7-.017,7.116-1,1.51-1.8,3.161-2.8,4.993m-24.465,36.23c2,1.754,2.148-.491,2.629-1.369,7.341-13.4,14.583-26.859,21.942-40.252a5.672,5.672,0,0,0,.109-6.1c-7.419-13.5-14.725-27.055-22.093-40.579a20.385,20.385,0,0,0-1.751-2.308c-.615.887-1,1.347-1.284,1.865-7.425,13.632-14.925,27.224-22.139,40.968a7.448,7.448,0,0,0,.095,5.977C844.475,715.254,852,728.974,859.717,743.19Z" transform="translate(-225.969 -102.252)" fill="#45b1da"/>
    <path id="Path_4161" data-name="Path 4161" d="M779.182,654.982c-3.368,5.5-6.45,10.885-9.927,16-1.008,1.48-3.117,3.05-4.779,3.115-17.587.691-35.186,1.091-52.782,1.552-.8.021-1.6-.135-3.035-.267,2.1-3.475,3.941-6.553,5.816-9.609,7.616-12.412,15.163-24.868,22.962-37.165,1-1.579,3.3-3.236,5.05-3.3,17.833-.635,35.679-.948,53.521-1.34a15.046,15.046,0,0,1,1.97.373c-6.346,10.345-12.5,20.381-18.8,30.644m-47.9-11.851q-8.987,14.643-18.006,29.337c.7.323.911.509,1.12.5q23.99-.512,47.979-1.052c2.676-.059,4.408-1.373,5.8-3.67,6.835-11.3,13.8-22.514,20.7-33.773,1.421-2.321,2.742-4.7,4.318-7.418a18.807,18.807,0,0,0-2.706-.43c-15.631.342-31.264.63-46.887,1.193a6.942,6.942,0,0,0-4.546,2.833C736.324,634.5,734.023,638.645,731.286,643.132Z" transform="translate(-192.095 -102.955)" fill="#4fa8db"/>
    <path id="Path_4162" data-name="Path 4162" d="M675.952,369.9c-5.6,10.341-11.07,20.45-16.883,31.2-1.011-1.558-1.766-2.567-2.361-3.662q-12.062-22.2-24.1-44.409c-1.176-2.159-1.645-4.136-.358-6.488,8.495-15.517,16.906-31.079,25.356-46.621a20.794,20.794,0,0,1,1.231-1.74,26.022,26.022,0,0,1,1.76,2.458c8.154,15.014,16.239,30.064,24.462,45.039,1.5,2.739,1.608,4.983-.047,7.744-3.175,5.3-5.97,10.818-9.06,16.479m3.21-11.105A54.117,54.117,0,0,1,682,353.72c2-2.855,1.724-5.374.03-8.39-5.884-10.471-11.486-21.1-17.213-31.659-1.816-3.347-3.69-6.662-5.894-10.634-1.09,1.846-1.781,2.938-2.4,4.07-7.01,12.9-13.947,25.839-21.06,38.682a6.856,6.856,0,0,0,.058,7.444c5.71,10.291,11.237,20.682,16.852,31.025,2,3.678,4.051,7.323,6.535,11.808C665.884,383.253,672.4,371.266,679.162,358.8Z" transform="translate(-171.144 -47.018)" fill="#4aabda"/>
    <path id="Path_4163" data-name="Path 4163" d="M991.187,1126.228c2.907,4.757,5.668,9.282,8.932,14.629-2.135,0-3.5.036-4.874-.007-16.866-.466-33.734-.889-50.592-1.53-1.672-.066-4-1.056-4.827-2.375-9.553-15.2-18.875-30.548-28.244-45.87a7.706,7.706,0,0,1-.491-1.523c7.417,0,14.624-.124,21.826.029,10.8.226,21.591.743,32.391.918a6.56,6.56,0,0,1,6.181,3.519c6.447,10.7,13.026,21.332,19.7,32.209m-61.47-10.272c3.734,6.1,7.343,12.276,11.292,18.228a6.8,6.8,0,0,0,4.543,2.863c15.624.568,31.26.867,46.888,1.2a12.094,12.094,0,0,0,2.455-.481,10.8,10.8,0,0,0-.59-1.625c-8.291-13.529-16.538-27.095-24.991-40.522a6.25,6.25,0,0,0-4.432-2.368c-15.622-.59-31.252-.954-46.88-1.362a24.854,24.854,0,0,0-2.884.32C920.078,1100.291,924.753,1107.9,929.717,1115.955Z" transform="translate(-247.045 -175.587)" fill="#4fa8db"/>
    <path id="Path_4164" data-name="Path 4164" d="M511.162,165.884c-1.283-2.188-2.422-4.149-3.766-6.466a10.674,10.674,0,0,1,2.032-.45c17.584.348,35.17.643,52.748,1.206a7.172,7.172,0,0,1,5.094,2.775c9.618,15.289,18.992,30.732,28.421,46.139a4.627,4.627,0,0,1,.179,1.174c-1.41.1-2.79.312-4.164.275-16.731-.444-33.459-.992-50.193-1.335-3.135-.064-4.8-1.523-6.294-3.994-7.914-13.067-15.932-26.072-24.057-39.324m49.493,41.26h30.869c-.688-1.174-1.335-2.317-2.02-3.436-7.6-12.416-15.273-24.787-22.751-37.275a7.1,7.1,0,0,0-6.744-3.855c-14.2-.214-28.39-.635-42.584-.969-1.739-.041-3.48-.006-5.447-.006a7.819,7.819,0,0,0,.484,1.665c8.427,13.757,16.821,27.536,25.412,41.191a6.022,6.022,0,0,0,4.231,2.1C548.032,206.947,553.984,206.977,560.655,207.144Z" transform="translate(-137.462 -42.88)" fill="#4fa8db"/>
    <path id="Path_4165" data-name="Path 4165" d="M728.6,740.529c11.978.356,23.617.59,35.238,1.167,1.853.092,4.392,1.237,5.325,2.711,9.269,14.643,18.271,29.455,27.331,44.231.489.8.819,1.692,1.423,2.961-1.5.09-2.647.242-3.786.213-17.09-.442-34.181-.841-51.263-1.472a6.748,6.748,0,0,1-4.818-2.506c-9.594-15.3-18.963-30.737-28.376-46.149a4.141,4.141,0,0,1-.248-1.162c6.354,0,12.591,0,19.175.007m3.179,32.645a115.081,115.081,0,0,1,6,9.96c1.845,3.84,4.641,5.017,8.69,5.065,14.186.171,28.368.592,42.552.911,1.379.031,2.759,0,4.6,0-.612-1.154-.858-1.684-1.161-2.18q-12.142-19.854-24.284-39.709a6.867,6.867,0,0,0-6.34-3.438c-8.849-.14-17.694-.511-26.543-.651-7.114-.114-14.23-.023-21.939-.023C719.531,753.171,725.525,762.942,731.783,773.173Z" transform="translate(-192.304 -122.255)" fill="#56a2db"/>
    <path id="Path_4166" data-name="Path 4166" d="M528.865,290.349c2.277-3.753,4.219-7.427,6.66-10.732,1.08-1.464,3.137-3.04,4.808-3.106,17.707-.694,35.426-1.1,53.142-1.561A23.229,23.229,0,0,1,596,275.2c-.723,1.359-1.217,2.418-1.824,3.407-8.633,14.065-17.357,28.075-25.869,42.213a8.277,8.277,0,0,1-7.883,4.524c-16.141.231-32.278.791-48.416,1.221-1.444.039-2.889.005-5.333.005,7.588-12.382,14.824-24.188,22.192-36.222m39.887,24.945,22.8-37.351a24.514,24.514,0,0,0-2.793-.385c-15.642.345-31.288.6-46.92,1.22-1.727.068-3.952,1.827-4.963,3.425-7.912,12.5-15.59,25.139-23.316,37.752-.659,1.075-1.147,2.253-1.9,3.748,1.533.094,2.475.219,3.414.2,13.822-.306,27.645-.866,41.467-.841C562.376,323.072,566.3,321.144,568.751,315.294Z" transform="translate(-137.265 -45.276)" fill="#56a2db"/>
    <path id="Path_4167" data-name="Path 4167" d="M532.7,433.789c-8.629-14.052-17.1-27.888-26.081-42.548,2.173,0,3.546-.032,4.917.005,16.738.454,33.479.836,50.209,1.5A7.512,7.512,0,0,1,567.1,395.5c9.452,14.974,18.635,30.117,27.885,45.219.311.508.529,1.072,1.079,2.207-1.591.074-2.824.209-4.052.177-15.161-.4-30.324-1.182-45.482-1.078-6.658.045-11.272-1.652-13.829-8.238M571.166,406.6c-1.586-2.584-3.339-5.082-4.711-7.776-1.394-2.735-3.387-3.673-6.4-3.732-10.914-.215-21.822-.719-32.735-1-5.165-.135-10.336-.023-15.776-.023a11.967,11.967,0,0,0,.624,1.494c8.415,13.763,16.773,27.562,25.372,41.208.815,1.294,3.134,2.241,4.8,2.307,15.151.6,30.311.977,45.469,1.39,1.122.031,2.25-.16,3.963-.293C584.746,428.722,578.1,417.884,571.166,406.6Z" transform="translate(-137.252 -64.482)" fill="#5b9ddb"/>
    <path id="Path_4168" data-name="Path 4168" d="M364.053,276.93c10.275,16.457,20.33,32.722,30.705,49.506-5.457,0-10.344.1-15.225-.019-13.211-.324-26.418-.8-39.629-1.078-2.693-.057-4.53-.884-5.966-3.249-9.059-14.92-18.217-29.779-27.332-44.664-.363-.592-.621-1.247-1.043-2.108,6.555,0,12.8-.147,19.036.031,13.08.372,26.156.916,39.455,1.581m13.362,26.092c-4.235-6.937-8.338-13.962-12.8-20.749-1.055-1.6-3.29-3.374-5.038-3.432-15.886-.535-31.784-.712-47.68-.965a6.132,6.132,0,0,0-1.61.453,9.8,9.8,0,0,0,.509,1.262c8.3,13.554,16.539,27.144,25.014,40.587a6.645,6.645,0,0,0,4.726,2.449c14.183.584,28.378.919,42.568,1.307,2.113.058,4.228.008,7.151.008C385.776,316.622,381.749,310.037,377.414,303.022Z" transform="translate(-82.674 -45.343)" fill="#6e8cdc"/>
    <path id="Path_4169" data-name="Path 4169" d="M724.772,1114.285c4.309-7.052,8.379-13.944,12.745-20.647.922-1.413,2.9-2.965,4.44-3.024,17.932-.677,35.874-1.085,53.813-1.544a15.909,15.909,0,0,1,1.931.233c-.625,1.246-1.07,2.31-1.664,3.286-8.856,14.476-17.673,28.974-26.692,43.349-.946,1.508-3.074,3.147-4.714,3.213-17.93.7-35.872,1.1-53.811,1.573a17.8,17.8,0,0,1-2.1-.313c5.445-8.859,10.682-17.376,16.053-26.126m-7.259,23.853c14.784-.35,29.568-.75,44.353-1.005a6.736,6.736,0,0,0,6.216-3.577c5.32-8.823,10.734-17.58,16.116-26.366,3.018-4.925,6.039-9.85,9.153-14.921A5.4,5.4,0,0,0,792,1091.8c-16.115.379-32.233.678-48.338,1.319-1.739.073-3.995,1.756-5,3.337-7.344,11.555-14.435,23.27-21.594,34.941-1.246,2.033-2.441,4.094-3.917,6.579C714.763,1138.057,715.8,1138.108,717.513,1138.137Z" transform="translate(-192.111 -175.469)" fill="#6890db"/>
    <path id="Path_4170" data-name="Path 4170" d="M835.969,924.736c8.193-15.141,16.266-30.039,24.757-45.706,2.474,4.47,4.582,8.209,6.625,11.982,6.641,12.265,13.313,24.514,19.811,36.855.718,1.363,1.089,3.648.438,4.881-8.437,15.981-17.087,31.849-25.7,47.739a13.5,13.5,0,0,1-1.286,1.53c-2.918-5.275-5.679-10.185-8.367-15.14-5.5-10.127-10.724-20.41-16.534-30.352-2.463-4.213-2.982-7.725.252-11.79m23.151,49.552c.486.758.972,1.515,1.694,2.645.848-1.406,1.505-2.39,2.068-3.431,7.2-13.33,14.343-26.694,21.642-39.97a4.886,4.886,0,0,0,.086-5.351c-7.328-13.257-14.572-26.562-21.88-39.831a24.791,24.791,0,0,0-2.26-2.913,20.149,20.149,0,0,0-1.379,1.864c-7.521,13.845-15.083,27.668-22.435,41.6-.614,1.164-.251,3.329.433,4.617C844.252,947.006,851.573,960.408,859.12,974.288Z" transform="translate(-226.039 -138.907)" fill="#52a3da"/>
    <path id="Path_4171" data-name="Path 4171" d="M683.767,575.807c3.475,4.347,2.558,8.034.026,12.443-7.421,12.924-14.3,26.157-21.405,39.263-.965,1.779-2,3.52-3.378,5.938-1.658-2.836-3.037-5.048-4.277-7.335-7.282-13.423-14.473-26.9-21.843-40.272-1.5-2.722-1.671-4.929-.118-7.739,8.265-14.956,16.341-30.018,24.493-45.037.392-.723.89-1.387,1.811-2.806,8.372,15.432,16.473,30.366,24.691,45.546m-1.858,1.625-22.79-41.856c-.882,1.3-1.551,2.126-2.052,3.045-7.249,13.3-14.432,26.647-21.749,39.914a6.329,6.329,0,0,0,.059,6.793c7.009,12.745,13.907,25.55,20.856,38.329.777,1.427,1.628,2.814,2.67,4.607.868-1.338,1.441-2.1,1.891-2.932,7.159-13.217,14.238-26.478,21.5-39.638C683.836,582.9,683.957,580.486,681.909,577.432Z" transform="translate(-171.2 -83.715)" fill="#589fda"/>
    <path id="Path_4172" data-name="Path 4172" d="M741.613,973.523c7.374.2,14.406.464,21.44.538a7.175,7.175,0,0,1,6.647,3.6q13.742,22.514,27.539,44.994a11.967,11.967,0,0,1,.581,1.5,28.161,28.161,0,0,1-3.839.415c-16.977-.444-33.955-.86-50.924-1.515a7.089,7.089,0,0,1-5.025-2.63c-9.567-15.183-18.893-30.521-28.271-45.824a5.3,5.3,0,0,1-.415-1.1c10.706,0,21.317,0,32.268.015m-2.293,2.516h-25.6c.707,1.306,1.271,2.468,1.942,3.565,7.464,12.193,15.042,24.316,22.355,36.6,1.891,3.177,4.046,4.59,7.81,4.641,11.993.153,23.98.685,35.971,1.013,3.8.1,7.606.015,11.454.015-.076-.627-.031-.9-.141-1.078-8.585-14.061-17.137-28.143-25.868-42.113A5.523,5.523,0,0,0,763.3,976.8C755.553,976.407,747.8,976.268,739.32,976.038Z" transform="translate(-192.281 -144.1)" fill="#6295db"/>
    <path id="Path_4173" data-name="Path 4173" d="M365.164,206.824c-1.643.906-3.095,2.162-4.588,2.214-17.705.608-35.417,1.037-53.127,1.5-.579.015-1.161-.079-2.424-.173,3.061-4.97,5.9-9.558,8.717-14.16,6.521-10.659,13.074-21.3,19.51-32.01,1.572-2.615,3.48-4.138,6.658-4.2,17.108-.319,34.215-.734,51.323-1.1.807-.017,1.618.134,3.2.275-9.878,16.107-19.485,31.772-29.264,47.647m-38.985-26.28-16.9,27.552c17.855-.531,34.568-.954,51.269-1.663,1.378-.058,3.074-1.813,3.945-3.2,7.844-12.538,15.543-25.167,23.265-37.782.657-1.073,1.172-2.233,1.888-3.612a18.343,18.343,0,0,0-2.325-.31c-15.762.347-31.526.632-47.281,1.2A6.876,6.876,0,0,0,335.5,165.6C332.278,170.284,329.436,175.236,326.179,180.544Z" transform="translate(-82.528 -42.862)" fill="#6791db"/>
    <path id="Path_4174" data-name="Path 4174" d="M322.031,1000.346c-5.652-9.167-11.15-18.12-16.974-27.6,1.8-.11,2.957-.267,4.114-.238q24.915.629,49.831,1.29c2.97.074,5.343.9,7.011,3.649,8.866,14.616,17.831,29.174,26.751,43.752.436.714.777,1.486,1.483,2.849-1.623.1-2.848.284-4.067.248-16.731-.445-33.461-.969-50.193-1.355a6.9,6.9,0,0,1-6.505-3.708c-3.653-6.287-7.517-12.451-11.451-18.884m57.548,3.978c-5.054-8.276-10.159-16.513-15.128-24.836a5.887,5.887,0,0,0-5.606-3.12c-12.6-.2-25.2-.609-37.8-.9-3.566-.082-7.135-.013-11.132-.013.655,1.308,1.1,2.394,1.709,3.383,7.719,12.605,15.522,25.163,23.147,37.825a7.169,7.169,0,0,0,6.733,3.876c11.752.226,23.5.714,35.246,1.035,4.19.109,8.385.015,13.462.015C386.521,1015.594,383.195,1010.181,379.579,1004.324Z" transform="translate(-82.537 -143.827)" fill="#9763d8"/>
    <path id="Path_4175" data-name="Path 4175" d="M351.205,43.419c15.128.36,11.514-1.524,19.071,10.61,7.313,11.742,14.5,23.565,21.729,35.359.737,1.2,1.4,2.451,2.326,4.079a22.212,22.212,0,0,1-2.858.352c-17.474-.463-34.948-.874-52.414-1.553a7.038,7.038,0,0,1-4.916-2.829c-9.181-14.582-18.133-29.309-27.131-44.006-.487-.8-.817-1.69-1.6-3.343,15.533.452,30.492.888,45.8,1.331m24.383,23.952c-3.608-5.9-7.306-11.747-10.782-17.723a6.382,6.382,0,0,0-6.084-3.586c-11.645-.2-23.284-.706-34.927-1.017-4.435-.119-8.877-.019-13.735-.019a27.835,27.835,0,0,0,1.314,2.913c7.927,12.929,15.92,25.817,23.783,38.784a6.551,6.551,0,0,0,6.182,3.508c13.469.2,26.935.6,40.4.913,2.58.059,5.162.008,8.43.008C385.208,83.054,380.539,75.437,375.588,67.371Z" transform="translate(-82.632 -11.153)" fill="#5e98da"/>
    <path id="Path_4176" data-name="Path 4176" d="M439.034,214.836c6-11.082,11.853-21.932,18.134-33.565,2.821,5.162,5.238,9.567,7.638,13.981,6.256,11.5,12.589,22.959,18.657,34.557a7.173,7.173,0,0,1,.268,5.739c-8.315,15.756-16.889,31.376-25.407,47.027a14.062,14.062,0,0,1-1.314,1.593c-2.472-4.445-4.828-8.6-7.111-12.8-6.314-11.606-12.558-23.249-18.924-34.827a6.509,6.509,0,0,1,.047-7.13c2.76-4.7,5.265-9.554,8.012-14.575m10.84-14.931c-5.214,9.587-10.336,19.226-15.7,28.73-1.675,2.97-1.789,5.434-.1,8.456,5.846,10.485,11.452,21.1,17.176,31.655,1.83,3.375,3.741,6.706,5.81,10.405a25.917,25.917,0,0,0,1.556-2.178c7.421-13.632,14.792-27.291,22.267-40.893,1.279-2.328.985-4.257-.224-6.47-7.037-12.874-13.977-25.8-20.973-38.7-.66-1.217-1.475-2.352-2.634-4.181C454.5,191.423,452.321,195.43,449.874,199.905Z" transform="translate(-116.435 -28.522)" fill="#5e98da"/>
    <path id="Path_4177" data-name="Path 4177" d="M380.593,879.793c-4.97,8.068-9.657,16.007-14.738,23.684a8.009,8.009,0,0,1-5.453,3.248c-17.323.7-34.659,1.059-51.991,1.506-.7.018-1.408-.113-2.54-.211a17.984,17.984,0,0,1,1.075-2.717c9.054-14.78,18.053-29.6,27.329-44.235a7.908,7.908,0,0,1,5.533-3.122c17.08-.694,34.173-1.07,51.263-1.518.935-.025,1.876.135,3.625.272-4.841,7.933-9.4,15.4-14.1,23.094M330.206,872l-20.6,33.613c2.335,0,3.639.033,4.94-.005,14.659-.424,29.317-.954,43.978-1.217,3.233-.058,5.05-1.311,6.652-3.968,7.447-12.347,15.063-24.594,22.6-36.888.789-1.287,1.447-2.654,2.343-4.312a21.245,21.245,0,0,0-2.268-.245c-12.967.3-25.962,1.291-38.888.718C339.336,859.268,333.782,863.13,330.206,872Z" transform="translate(-82.757 -141.359)" fill="#8f6adb"/>
    <path id="Path_4178" data-name="Path 4178" d="M175.66,414.779c5.761,9.393,11.381,18.563,17.244,28.129-2.809,0-5.055.043-7.3-.007-15.16-.34-30.319-.807-45.481-.984-4.179-.049-6.844-1.314-9.079-5.1-8.327-14.092-17.041-27.953-25.6-41.909-.552-.9-.993-1.868-1.786-3.375,4.42,0,8.356-.086,12.288.015,13.823.354,27.643.86,41.468,1.105,3.411.06,5.6,1.132,7.32,4.186,3.389,6.019,7.165,11.819,10.922,17.934m-1.6,2.036c-3.594-5.9-7.254-11.763-10.751-17.72-1.474-2.511-3.254-3.92-6.338-3.983-12.605-.257-25.206-.718-37.81-1.051-3.557-.095-7.119-.015-10.881-.015a8.024,8.024,0,0,0,.433,1.494c8.485,13.85,16.934,27.723,25.571,41.478a5.748,5.748,0,0,0,4.132,2.117c15.026.455,30.058.718,45.09,1,1.36.026,2.725-.166,4.7-.3C183.326,431.88,178.841,424.566,174.059,416.815Z" transform="translate(-27.867 -64.55)" fill="#8d6ddb"/>
    <path id="Path_4179" data-name="Path 4179" d="M545.792,625.133c5.941.2,11.531.218,17.085.678a6.458,6.458,0,0,1,4.419,2.43c9.527,15.214,18.86,30.548,28.231,45.859a9.732,9.732,0,0,1,.574,1.609c-5.031,0-9.806.1-14.577-.019-13.582-.348-27.165-.719-40.739-1.287a6.1,6.1,0,0,1-4.329-2.293c-9.472-15.1-18.753-30.328-28.072-45.527a13.757,13.757,0,0,1-.725-1.458c12.623,0,25.2,0,38.133.007M533.6,663.06a54.208,54.208,0,0,1,2.991,4.992c1.563,3.337,4.223,4.253,7.678,4.31,14.56.238,29.117.621,43.677.931,1.137.024,2.277-.112,3.423-.174-.042-.609.023-.889-.085-1.064-8.534-13.976-17.031-27.976-25.724-41.852a5.856,5.856,0,0,0-4.237-2.107c-15.4-.423-30.814-.65-46.223-.908-.9-.015-1.8.166-3.313.318C519.158,639.52,526.241,651.062,533.6,663.06Z" transform="translate(-137.533 -103.232)" fill="#6890db"/>
    <path id="Path_4180" data-name="Path 4180" d="M328.9,778.989c-7.907-12.862-15.678-25.5-23.677-38.5,7.379,0,14-.125,20.619.028,11.389.264,22.773.769,34.162,1.018a6.4,6.4,0,0,1,5.944,3.315c8.885,14.594,17.851,29.137,26.771,43.709.489.8.813,1.7,1.421,2.992-1.478.094-2.609.254-3.735.224-17.206-.45-34.414-.857-51.613-1.51a7.175,7.175,0,0,1-4.588-2.719,84.471,84.471,0,0,1-5.3-8.556M367.37,751.8a18.928,18.928,0,0,1-1.512-2.484c-1.853-4.41-5.1-5.681-9.829-5.687-13.833-.017-27.664-.552-41.5-.876-1.385-.033-2.771,0-4.529,0a11.949,11.949,0,0,0,.643,1.907c8.353,13.666,16.653,27.364,25.195,40.91a6.72,6.72,0,0,0,4.82,2.438c15.284.525,30.575.809,45.865,1.134a30.024,30.024,0,0,0,3.466-.375C382.317,776.229,374.979,764.244,367.37,751.8Z" transform="translate(-82.581 -122.238)" fill="#8a6fdb"/>
    <path id="Path_4181" data-name="Path 4181" d="M521.749,1113.584c-4.95-8.043-9.747-15.868-15.03-24.479,2.044,0,3.3-.029,4.548,0,16.974.459,33.95.874,50.918,1.479,1.576.058,3.788.94,4.553,2.164,9.663,15.409,19.114,30.949,28.6,46.46a4.245,4.245,0,0,1,.256,1.18c-6.475,0-12.838.117-19.194-.029-11.639-.27-23.273-.794-34.912-1a6.466,6.466,0,0,1-6.166-3.5c-4.379-7.409-8.938-14.717-13.579-22.279m1.019-2.914c4.622,7.541,9.324,15.037,13.823,22.651a7.078,7.078,0,0,0,6.753,3.847c14.667.2,29.33.627,43.995.969,1.255.029,2.511,0,4.406,0-1.08-1.909-1.741-3.169-2.482-4.379-7.471-12.189-15.089-24.3-22.346-36.617-1.954-3.315-4.323-4.393-7.906-4.43-9.089-.1-18.175-.517-27.265-.67-6.618-.117-13.24-.022-20.406-.022C515.188,1098.307,518.833,1104.266,522.768,1110.67Z" transform="translate(-137.278 -175.475)" fill="#8178db"/>
    <path id="Path_4182" data-name="Path 4182" d="M353.863,508.61c7.627-1.261,11.724,2.106,15.249,8.4,7.219,12.891,15.321,25.288,23.053,37.892.688,1.122,1.33,2.272,2.166,3.7a10.481,10.481,0,0,1-2.263.524q-25.816-.646-51.63-1.345c-2.636-.068-4.879-.489-6.465-3.111-9.159-15.14-18.453-30.2-27.7-45.287-.246-.4-.422-.843-1.027-2.069,16.424.439,32.34.864,48.613,1.292m-10.6,2.148H310.222a21.688,21.688,0,0,0,1.115,2.373c8.041,13.142,16.017,26.324,24.278,39.325a7.529,7.529,0,0,0,5.324,2.733c12.843.625,25.7.949,38.556,1.319,3.318.1,6.641.015,10.1.015a5.978,5.978,0,0,0-.3-1.483c-8.539-13.974-17.058-27.96-25.729-41.851a5.125,5.125,0,0,0-3.6-1.792C354.654,511.031,349.312,510.951,343.266,510.759Z" transform="translate(-82.589 -83.669)" fill="#7c7bdb"/>
    <path id="Path_4183" data-name="Path 4183" d="M236.98,832.241c-2.739-5.032-5.52-9.746-7.865-14.668a6.889,6.889,0,0,1-.227-5.364c8.325-15.775,16.88-31.428,25.388-47.106a16.663,16.663,0,0,1,1.426-1.818c2.263,4.073,4.395,7.84,6.462,11.642,6.434,11.833,12.809,23.7,19.288,35.506,1.375,2.507,1.947,4.765.444,7.5-8.468,15.423-16.824,30.907-25.224,46.368-.224.412-.525.784-1.271,1.886-6.253-11.523-12.274-22.617-18.421-33.948m24.061-54.327-5.305-9.642a6.825,6.825,0,0,0-.926.992c-7.718,14.159-15.522,28.271-22.994,42.558-.867,1.658-.539,4.617.361,6.405,3.977,7.9,8.37,15.592,12.6,23.364,3.469,6.365,6.927,12.736,10.664,19.611.9-1.522,1.536-2.517,2.1-3.551,7.184-13.206,14.288-26.458,21.593-39.6,1.445-2.6,1.217-4.587-.147-7.058C273.009,800.174,267.193,789.259,261.041,777.914Z" transform="translate(-61.739 -120.605)" fill="#9763d8"/>
    <path id="Path_4184" data-name="Path 4184" d="M581.286,883.2c5.034,8.245,9.937,16.261,15.306,25.039-2.137,0-3.414.029-4.689,0-16.478-.433-32.955-.908-49.434-1.282-2.876-.066-5.154-.775-6.743-3.383q-13.613-22.354-27.313-44.654a21.019,21.019,0,0,1-.944-2.165c1.69-.116,3.056-.32,4.416-.285,16.478.428,32.953.96,49.432,1.286a7.319,7.319,0,0,1,6.956,4.126c4.124,7.13,8.567,14.075,13.013,21.322m-46.817,13.664a16.475,16.475,0,0,1,1.525,2.473c1.629,4.068,4.586,5.087,8.864,5.12,13.212.1,26.42.711,39.631,1.1,2.317.068,4.637.009,7.226.009a14.114,14.114,0,0,0-.642-1.663c-8.346-13.654-16.615-27.356-25.177-40.874-.927-1.463-3.518-2.532-5.395-2.624-12.229-.605-24.473-.922-36.713-1.264-3.936-.111-7.877-.018-12.418-.018Z" transform="translate(-137.482 -141.368)" fill="#7485db"/>
    <path id="Path_4185" data-name="Path 4185" d="M165.083,164.844c9.3,15.18,18.461,30.13,27.984,45.66-1.921,0-3.088.027-4.252,0-16.984-.456-33.97-.848-50.947-1.489-1.769-.067-4.223-1.153-5.107-2.556-9.446-14.983-18.64-30.124-27.89-45.23a21.928,21.928,0,0,1-.986-2.309c1.6,0,2.844-.024,4.086,0,16.5.369,33,.808,49.509,1.07,3.591.057,6.048,1.359,7.6,4.854m21.691,39.949c-7.867-12.814-15.82-25.578-23.532-38.485-1.668-2.793-3.631-3.718-6.743-3.781-15.036-.308-30.068-.82-45.1-1.235-.988-.028-1.981.141-3.225.239a18.327,18.327,0,0,0,.782,1.755c8.3,13.547,16.541,27.126,25,40.568a6.654,6.654,0,0,0,4.6,2.669c11.261.577,22.538.887,33.813,1.176,5.171.132,10.348.023,15.926.023C187.771,206.7,187.4,205.981,186.774,204.793Z" transform="translate(-27.928 -42.864)" fill="#8178db"/>
    <path id="Path_4186" data-name="Path 4186" d="M323.734,412.561c3.432-5.6,6.563-11.084,10.1-16.293,1.079-1.59,3.238-3.378,4.968-3.449,17.807-.727,35.627-1.121,53.443-1.595a23.152,23.152,0,0,1,2.374.238c-2.985,4.922-5.753,9.535-8.568,14.119-6.66,10.847-13.394,21.647-19.97,32.543-1.4,2.322-3.111,3.556-5.805,3.618q-26.546.613-53.091,1.266a9.15,9.15,0,0,1-1.763-.514c6.135-10.034,12.151-19.873,18.311-29.934m61.209-9.83,5.082-8.407a8.937,8.937,0,0,0-1.654-.425c-16.255.415-32.514.763-48.76,1.41-1.5.06-3.4,1.731-4.3,3.165-7.88,12.529-15.581,25.17-23.312,37.792-.728,1.188-1.3,2.471-2.13,4.073,1.25.1,1.94.219,2.626.2,16.012-.451,32.025-.865,48.03-1.483A5.334,5.334,0,0,0,364,436.618C370.96,425.519,377.778,414.328,384.943,402.731Z" transform="translate(-82.636 -64.486)" fill="#7485db"/>
    <path id="Path_4187" data-name="Path 4187" d="M657.009,766.227c.677-1.1,1.224-1.982,2.061-3.334,4.239,7.779,8.224,15.09,12.2,22.4,4.575,8.408,9.125,16.831,13.734,25.222,1.221,2.224,1.953,4.293.571,6.816-8.611,15.732-17.135,31.511-25.7,47.27a11.655,11.655,0,0,1-1.083,1.288c-2.486-4.5-4.875-8.777-7.216-13.078-6.257-11.5-12.428-23.037-18.783-34.477-1.55-2.79-1.349-5.1.135-7.8,8.049-14.658,15.975-29.383,24.075-44.307m-7.138,78.222,8.8,16.28c.632-.564.863-.685.968-.876,7.779-14.274,15.616-28.518,23.207-42.891a6.711,6.711,0,0,0-.248-5.366c-5.946-11.4-12.125-22.682-18.256-33.987-1.642-3.028-3.364-6.011-5.149-9.191-.64.612-.968.805-1.124,1.091-7.778,14.275-15.593,28.531-23.211,42.891a5.861,5.861,0,0,0,.2,4.695C639.776,826.127,644.722,835.038,649.87,844.449Z" transform="translate(-171.211 -120.533)" fill="#6791db"/>
    <path id="Path_4188" data-name="Path 4188" d="M247.659,544.468c2.551-4.7,4.985-9.15,7.808-14.319,3.055,5.556,5.793,10.481,8.48,15.433,5.957,10.981,11.984,21.928,17.729,33.02.855,1.65,1.139,4.434.329,5.981-8.056,15.359-16.394,30.57-24.672,45.813-.45.829-1.075,1.564-2,2.9-3.225-5.885-6.241-11.347-9.219-16.829-5.56-10.232-11.037-20.509-16.685-30.691a7.3,7.3,0,0,1,0-7.836c6.115-11.032,12.088-22.144,18.232-33.467m1.365,2.543c-5.676,10.426-11.306,20.877-17.063,31.258a6.685,6.685,0,0,0,.01,7.154c5.4,9.749,10.67,19.567,15.99,29.359,2.359,4.341,4.723,8.679,7.314,13.44a31.408,31.408,0,0,0,1.943-2.728c7.418-13.615,14.891-27.2,22.1-40.927a7.058,7.058,0,0,0-.189-5.632c-5.278-10.223-10.836-20.3-16.322-30.417-2.3-4.231-4.642-8.435-7.32-13.3C253.178,539.409,251.219,542.967,249.024,547.011Z" transform="translate(-61.697 -83.701)" fill="#8a6fdb"/>
    <path id="Path_4189" data-name="Path 4189" d="M58.252,276.636l-4.376,7.822c-1.165-1.9-2.075-3.246-2.846-4.667-7.863-14.49-15.759-28.963-23.467-43.536-.79-1.494-1.19-4.007-.474-5.363,8.6-16.284,17.443-32.438,26.632-49.38,1.174,2,2.088,3.455,2.906,4.962,7.8,14.387,15.543,28.8,23.412,43.153a6.692,6.692,0,0,1-.147,7.14c-7.23,13.178-14.35,26.416-21.64,39.868M37.878,215.8c-2.335,4.253-4.527,8.593-7.053,12.731-1.849,3.03-1.874,5.63-.119,8.784,7.077,12.72,13.922,25.569,20.873,38.359.6,1.11,1.358,2.137,2.25,3.527.671-1.018,1.1-1.575,1.432-2.186C62.674,263.371,70.033,249.7,77.52,236.1a5.636,5.636,0,0,0-.062-6.085C70.12,216.6,62.89,203.136,55.6,189.7c-.494-.911-1.156-1.732-1.981-2.952C48.288,196.576,43.2,205.946,37.878,215.8Z" transform="translate(-6.981 -28.559)" fill="#8f6adb"/>
    <path id="Path_4190" data-name="Path 4190" d="M461.845,422.367c7.483,13.778,14.867,27.3,22.108,40.907a5.308,5.308,0,0,1,.332,4.239c-8.491,15.96-17.151,31.831-25.781,47.717-.273.5-.661.943-1.311,1.854-3.087-5.634-6.008-10.922-8.889-16.231-5.729-10.558-11.534-21.078-17.054-31.745-.864-1.67-1.225-4.465-.417-6,8.247-15.677,16.784-31.2,25.249-46.763.281-.517.674-.974,1.381-1.982,1.545,2.827,2.9,5.3,4.382,8.007m4.695,72.95c4.9-9.068,9.758-18.16,14.743-27.181a4.54,4.54,0,0,0-.014-4.991c-4.766-8.589-9.383-17.26-14.07-25.893-3.158-5.816-6.344-11.616-9.7-17.748a19.871,19.871,0,0,0-1.351,1.836c-7.7,14.172-15.428,28.329-22.979,42.58a5.322,5.322,0,0,0,.317,4.259c6.557,12.306,13.252,24.538,19.951,36.768,1.18,2.155,2.549,4.205,4.183,6.88C460.785,505.984,463.542,500.891,466.539,495.316Z" transform="translate(-116.556 -65.411)" fill="#6a8dda"/>
    <path id="Path_4191" data-name="Path 4191" d="M268.078,320.712c4.642,8.552,9.3,16.792,13.568,25.233.9,1.775,1.177,4.736.306,6.4-8.228,15.679-16.766,31.2-25.228,46.752a18.045,18.045,0,0,1-1.35,1.79c-4.326-7.929-8.5-15.557-12.653-23.2-4.463-8.2-9.03-16.356-13.265-24.677-.868-1.707-1.325-4.511-.517-6.045,8.359-15.885,17.015-31.612,25.6-47.378a12.617,12.617,0,0,1,1.241-1.408c4.154,7.6,8.167,14.948,12.3,22.533m10.715,24.763-23.174-42.614c-.964,1.6-1.559,2.511-2.075,3.463-7.1,13.1-14.129,26.245-21.346,39.283a7.169,7.169,0,0,0,.051,7.773c7.2,13.05,14.231,26.19,21.343,39.287.537.987,1.233,1.888,2.036,3.1.635-1,1.052-1.582,1.391-2.205,7.35-13.52,14.631-27.077,22.085-40.538A6.44,6.44,0,0,0,278.793,345.475Z" transform="translate(-61.76 -47.027)" fill="#7c7bdb"/>
    <path id="Path_4192" data-name="Path 4192" d="M253.534,165.021c-7.924-14.629-15.654-29.067-23.6-43.384-1.851-3.333-1.981-6.066-.09-9.465,7.962-14.309,15.678-28.755,23.494-43.144.57-1.051,1.232-2.052,2.181-3.621,1.316,2.22,2.451,4,3.456,5.849,7.7,14.176,15.436,28.335,22.97,42.6a6.72,6.72,0,0,1,.3,5.385c-8.463,15.969-17.163,31.812-25.8,47.686-.172.316-.392.605-.8,1.228-.825-1.2-1.409-2.051-2.108-3.136m-19.605-55.088c-3.742,4.608-3.122,8.853-.119,13.893,6.072,10.2,11.411,20.828,17.069,31.271,1.406,2.6,2.879,5.154,4.57,8.177.957-1.484,1.6-2.347,2.1-3.283,7.047-13,14.011-26.045,21.159-38.988a7.889,7.889,0,0,0-.081-8.488c-7.086-12.84-13.99-25.779-20.979-38.672-.56-1.031-1.263-1.984-2.246-3.51C248.135,83.724,241.153,96.586,233.929,109.933Z" transform="translate(-61.751 -17.483)" fill="#6f88da"/>
    <path id="Path_4193" data-name="Path 4193" d="M468.468,729.278c-3.7,6.8-7.267,13.359-11.229,20.637-2.731-4.932-5.09-9.13-7.391-13.36-6.314-11.612-12.581-23.249-18.92-34.847a6.088,6.088,0,0,1-.163-6.472c8.28-15.1,16.436-30.263,24.654-45.4a31.581,31.581,0,0,1,1.955-2.753c3.02,5.5,5.826,10.56,8.587,15.646,5.726,10.552,11.352,21.159,17.189,31.649a7.512,7.512,0,0,1-.1,8.146c-4.921,8.779-9.648,17.666-14.575,26.749M441.18,681.213c-2.5,4.574-4.933,9.182-7.511,13.708a6.335,6.335,0,0,0,.029,6.816c7.175,13.064,14.22,26.2,21.336,39.3.581,1.069,1.363,2.028,2.146,3.177a10.1,10.1,0,0,0,1.078-1.228c7.586-13.945,15.236-27.856,22.624-41.905a7.187,7.187,0,0,0-.125-5.687c-3.563-7.154-7.5-14.122-11.319-21.151-3.965-7.3-7.943-14.594-12.258-22.519C451.7,661.833,446.58,671.291,441.18,681.213Z" transform="translate(-116.428 -102.228)" fill="#7780db"/>
    <path id="Path_4194" data-name="Path 4194" d="M667.671,1011.1c5.962,11.008,11.9,21.733,17.551,32.6.863,1.661,1.192,4.459.38,6-8.142,15.46-16.571,30.767-24.935,46.1-.388.714-.921,1.348-1.794,2.6-3.12-5.7-6.018-10.943-8.882-16.218-5.677-10.447-11.438-20.851-16.9-31.415-.925-1.785-1.443-4.743-.6-6.346,8.51-16.21,17.343-32.253,26.549-49.193,3.051,5.6,5.782,10.609,8.63,15.869m-23.492,55.2c4.819,8.9,9.637,17.8,14.66,27.073a20.245,20.245,0,0,0,1.528-1.982c7.541-13.857,15.155-27.67,22.465-41.644.82-1.566.543-4.371-.316-6.04-5-9.7-10.331-19.241-15.545-28.836-2.519-4.634-5.03-9.274-7.728-14.25a16.693,16.693,0,0,0-1.42,1.829c-7.592,13.959-15.247,27.889-22.628,41.964-.775,1.479-.484,4.087.29,5.7C638.05,1055.473,641.063,1060.609,644.179,1066.3Z" transform="translate(-171.303 -149.995)" fill="#7485db"/>
    <path id="Path_4195" data-name="Path 4195" d="M456.091,980.392c-8.394-15.443-16.6-30.7-24.95-45.88-1.362-2.479-1.574-4.464-.145-7.05,8.2-14.846,16.231-29.789,24.33-44.692.509-.936,1.123-1.816,2.006-3.233,2.446,4.413,4.679,8.371,6.845,12.366,6.585,12.141,13.206,24.264,19.623,36.493a6.035,6.035,0,0,1,.046,4.861q-12.159,22.968-24.742,45.706c-.395.721-.312,4.051-3.014,1.428m-10.41-74.966c-4.081,7.578-8.092,15.2-12.294,22.707a4.873,4.873,0,0,0-.053,5.343c4.773,8.717,9.364,17.534,14.132,26.255,3.112,5.692,6.413,11.279,9.662,16.969.587-.437.853-.539.956-.729,7.868-14.491,15.753-28.969,23.5-43.518a4.475,4.475,0,0,0-.217-3.585c-4.745-9.008-9.624-17.947-14.485-26.9-3.1-5.7-6.226-11.38-9.679-17.685C453.233,891.6,449.6,898.287,445.681,905.426Z" transform="translate(-116.457 -139.135)" fill="#8474db"/>
    <path id="Path_4196" data-name="Path 4196" d="M745.011,864.885c1.95-5.532,5.681-7.341,11.652-7.324,15.509.044,31.021-.712,46.532-1.139,1.393-.039,2.789-.005,4.922-.005l-15.04,24.53c-4.434,7.232-8.94,14.422-13.264,21.719-1.625,2.742-3.42,4.373-6.926,4.064-3.231-.286-6.527.161-10.313.075a10.323,10.323,0,0,1-2.709-1.946c4.408-.227,8.522-.578,12.627-.5,2.524.047,3.919-.907,5.189-3,7.97-13.139,16.069-26.2,24.1-39.3.522-.849.874-1.8,1.51-3.138-15.355.429-30.105,1.041-44.859,1.149-5.358.039-9.745.785-12.191,6.319A6.438,6.438,0,0,1,745.011,864.885Z" transform="translate(-201.963 -141.51)" fill="#589fda"/>
    <path id="Path_4197" data-name="Path 4197" d="M546.8,46.8c1.321-1.054,2.611-2.981,3.968-3.029,18.3-.653,36.618-1.045,54.929-1.483.192,0,.391.239.968.618-.606,1.192-1.153,2.482-1.877,3.662-8.758,14.262-17.471,28.553-26.421,42.694-.973,1.537-3.354,2.181-5.587,3.155-1.7-.062-2.9-.039-4.1-.016-3.63.182-7.261.364-11.2.218a5.06,5.06,0,0,1,2.313-1.874c3.713-.149,7.128-.24,10.733-.189a14.857,14.857,0,0,0,3.609-.517,24.852,24.852,0,0,0,3.015-3.38Q586.74,71.215,596.2,55.694c2.058-3.366,4.039-6.78,6.274-10.539a21.65,21.65,0,0,0-2.291-.24c-16,.426-31.992.809-47.981,1.4-1.393.052-2.734,1.51-4.333,2.243A8.723,8.723,0,0,1,546.8,46.8Z" transform="translate(-148.159 -11.208)" fill="#43b3da"/>
    <path id="Path_4198" data-name="Path 4198" d="M137.188,751.68c.087-.225.17-.451.261-.674,2.818-6.942,7.331-10.171,15.454-10.012,16.074.315,32.172-.6,49.01-1.032-.9,1.626-1.46,2.739-2.108,3.8C191.079,758,182.293,772.211,173.648,786.5c-1.617,2.674-3.5,4.021-6.719,3.84-3.25-.183-6.526.1-9.857.043a8.914,8.914,0,0,1,.327-1.652c.012.01-.015.02.32.035,2.8-.2,5.262-.425,8.008-.7a6.332,6.332,0,0,0,6.231-3.383c7.927-13.037,15.938-26.023,23.893-39.042a24.119,24.119,0,0,0,1.263-3.038c-1.936,0-3.353-.031-4.768,0-12.353.308-24.717,1.083-37.053.774-7.4-.185-13.005,1.225-15.82,8.641-.038.1-.173.165-.366.13A14.617,14.617,0,0,0,137.188,751.68Z" transform="translate(-36.968 -122.245)" fill="#9d5ecc"/>
    <path id="Path_4199" data-name="Path 4199" d="M977.766,1022.511c-2.666.16-5.331.32-8.531.27-2.3-.729-4.068-1.253-5.515-1.829,4.068-.211,7.82-.525,11.566-.474,2.664.036,4.153-1.136,5.479-3.322,7.4-12.211,14.943-24.333,22.4-36.512.976-1.595,1.763-3.3,2.819-5.3a21.079,21.079,0,0,0-2.273-.233c-16.2.479-32.412.953-48.615,1.521-.923.032-1.818.857-2.956,1.279a8.878,8.878,0,0,1-1.076-1.928c1.446-.707,2.873-1.985,4.342-2.034,17.685-.6,35.373-1.013,53.07-1.462a18.457,18.457,0,0,1,2.375.393c-9.952,16.152-19.671,31.934-29.805,47.954C979.68,1021.55,978.724,1022.031,977.766,1022.511Z" transform="translate(-257.897 -143.822)" fill="#45b1da"/>
    <path id="Path_4200" data-name="Path 4200" d="M565.392,557.151a21.638,21.638,0,0,1-4.457,1.094c-16.591.522-33.186.956-49.78,1.388-1.155.031-2.315-.135-4.218-.256,3.676-6.056,6.965-11.521,10.3-16.96,5.315-8.676,11.038-17.132,15.855-26.076,3.082-5.72,6.963-8.326,13.73-6.893a15.491,15.491,0,0,0,4.135,1c4.524.232,9.055.36,13.251.6-7.368.291-14.4.636-21.438.669a6.081,6.081,0,0,0-5.879,3.267c-7.773,12.881-15.7,25.669-23.55,38.5-.592.967-1.017,2.035-1.789,3.6,17.643-.446,34.587-.874,51.585-1.056A10.8,10.8,0,0,0,565.392,557.151Z" transform="translate(-137.337 -84.038)" fill="#6791db"/>
    <path id="Path_4201" data-name="Path 4201" d="M772.241,434.463a47.317,47.317,0,0,1-3.68,6.209,5.979,5.979,0,0,1-3.858,2.193c-18.153.585-36.312.992-54.47,1.423a7.211,7.211,0,0,1-1.609-.546c9.993-16.172,19.876-32.168,30.008-48.043a8.264,8.264,0,0,1,2.149,1.119,5.428,5.428,0,0,0-.963.908q-12.374,20.137-24.707,40.3a39.013,39.013,0,0,0-1.7,3.662c1.694,0,2.745.028,3.794,0,13.329-.413,26.658-1.147,39.985-1.109,5.844.017,10.474-.794,12.922-6.44C770.623,437.85,771.6,433.109,772.241,434.463Z" transform="translate(-192.085 -65.388)" fill="#45b1da"/>
    <path id="Path_4202" data-name="Path 4202" d="M71.4,724.544,54.029,757.375c-1.1-1.681-1.86-2.669-2.447-3.748-7.941-14.6-15.808-29.237-23.827-43.792a7.157,7.157,0,0,1-.036-7.789c5.013-8.867,9.817-17.854,15.1-26.943a3.928,3.928,0,0,1,2.192.012c-4.912,9.211-9.712,18.195-14.643,27.1-1.279,2.31-1.685,4.335-.329,6.8,7.36,13.388,14.607,26.838,21.917,40.255a30.783,30.783,0,0,0,1.979,2.776c5.277-9.521,10.263-18.516,15.472-27.514C70.219,724.538,70.811,724.541,71.4,724.544Z" transform="translate(-6.945 -108.605)" fill="#a657b6"/>
    <path id="Path_4203" data-name="Path 4203" d="M163.721,1140.211c-9.21-.211-18.423-.386-27.63-.692a3.678,3.678,0,0,1-2.655-1.37c-9.908-15.941-19.722-31.94-29.492-47.829,12.038,0,23.92,0,36.131.313a2.393,2.393,0,0,1,.05,2.047c-2.24-.08-4.2-.219-6.385-.372a6.5,6.5,0,0,0-1.032.036c-8.241.044-16.148.044-24.382.044.409.889.6,1.443.906,1.938,8.217,13.434,16.36,26.92,24.79,40.223.945,1.493,3.485,2.637,5.362,2.761,8.34.546,16.709.663,24.977,1.122C164.086,1139.155,163.9,1139.687,163.721,1140.211Z" transform="translate(-27.944 -175.808)" fill="#af51a1"/>
    <path id="Path_4204" data-name="Path 4204" d="M574.816,1022.457a58.225,58.225,0,0,1-7.562.182,5.209,5.209,0,0,1,2.293-1.821c4.531.233,7-1.9,9.117-5.53,6.174-10.564,12.734-20.9,19.126-31.342,1.679-2.742,3.3-5.522,5.188-8.7-1.45-.087-2.256-.2-3.058-.176-15.872.442-31.746.85-47.612,1.447-1.283.048-2.516,1.413-3.992,2.122a13.224,13.224,0,0,1-.334-2.887s.015.023.174.014a2.239,2.239,0,0,0,.543-.731,14.331,14.331,0,0,1,3.672-1.137c17.42-.524,34.844-.96,52.267-1.4a23.541,23.541,0,0,1,2.717.318c-3.354,5.528-6.438,10.658-9.567,15.761q-9.39,15.318-18.847,30.6a13.055,13.055,0,0,1-3.287,3.2C575.076,1022.428,574.946,1022.442,574.816,1022.457Z" transform="translate(-148.479 -143.826)" fill="#7780db"/>
    <path id="Path_4205" data-name="Path 4205" d="M140,625.084c9.576.184,19.159.235,28.723.675a7.11,7.11,0,0,1,4.986,2.763c9.489,15.083,18.743,30.313,28.048,45.511a3.82,3.82,0,0,1,.362.954c-11.576,0-23.129,0-34.935-.394a1.888,1.888,0,0,1,.008-1.645c10.236-.157,20.23-.157,30.542-.157a25.557,25.557,0,0,0-1.23-2.672c-8.037-13.143-16.022-26.32-24.258-39.337a7.175,7.175,0,0,0-4.969-2.685c-7.85-.528-15.728-.64-23.307-.9,1.293-.057,2.3-.115,3.3-.173-1.279-.546-2.575-.365-3.791-.6A19.745,19.745,0,0,1,140,625.084Z" transform="translate(-37.731 -103.283)" fill="#9763d8"/>
    <path id="Path_4206" data-name="Path 4206" d="M145.679,44.378a9.055,9.055,0,0,1,2.355-.739q27.051-.77,54.1-1.443a9.355,9.355,0,0,1,1.542.311c-.6,1.162-1.055,2.21-1.647,3.178-8.4,13.734-16.97,27.368-25.139,41.239-2.385,4.05-5.063,6.266-9.813,5.545a25.336,25.336,0,0,1-2.88-.278,1.729,1.729,0,0,1-.026-1.786c6.091.852,9.207-2.074,11.98-6.9,6.641-11.545,13.854-22.761,20.809-34.127.777-1.271,1.378-2.65,2.181-4.209a15.3,15.3,0,0,0-1.969-.285c-14.294.314-28.59.581-42.881,1.021-2.841.087-5.659.847-8.71,1.158a8.9,8.9,0,0,1-.911-1.549l.256-.024A3.683,3.683,0,0,0,145.679,44.378Z" transform="translate(-39.001 -11.182)" fill="#7485db"/>
    <path id="Path_4207" data-name="Path 4207" d="M136.079,974.928a55.319,55.319,0,0,1,6.875,0,1.953,1.953,0,0,1,.034,1.905c-5.776-.787-8.778,1.867-11.45,6.5-6.883,11.947-14.332,23.56-21.538,35.319-.641,1.049-1.157,2.171-2.013,3.788,15.423-.4,30.055-.729,44.681-1.2,2.969-.1,5.919-.729,9.106-1.013.644.393,1.061.677,1.478.962-1.4.765-2.773,2.157-4.2,2.208-17.806.634-35.619,1.085-53.43,1.559a8.656,8.656,0,0,1-1.724-.386c.663-1.29,1.133-2.353,1.736-3.337q13.29-21.693,26.641-43.353a11.491,11.491,0,0,1,3.07-2.884C135.762,974.969,136.079,974.928,136.079,974.928Z" transform="translate(-27.933 -144.456)" fill="#aa53ab"/>
    <path id="Path_4208" data-name="Path 4208" d="M68.349,497.694,54.226,524.468a23.629,23.629,0,0,1-1.982-2.557c-8.405-15.277-16.762-30.582-25.193-45.843a4.8,4.8,0,0,1,.076-5.319c5.167-9.179,10.131-18.473,15.409-27.638A6.318,6.318,0,0,1,43.5,445.4c-4.482,8.477-8.856,16.733-13.4,24.895-1.177,2.114-1.435,3.858-.212,6.061,7.417,13.365,14.719,26.792,22.082,40.187.536.975,1.249,1.853,2.017,2.979,4.578-8.314,8.906-16.172,13.347-23.859C67.747,496.458,68.048,497.076,68.349,497.694Z" transform="translate(-6.863 -71.309)" fill="#9d5ecc"/>
    <path id="Path_4209" data-name="Path 4209" d="M347.99,1091.2c3.09-.328,6.173-.867,9.27-.954,15.277-.459,30.558-.794,45.838-1.159.709-.022,1.42.088,2.661.182-.621,1.3-1.021,2.4-1.616,3.373q-13.292,21.714-26.655,43.392a8.389,8.389,0,0,1-3,2.579,61.588,61.588,0,0,1-6.521-1.4c4.646.568,7.135-1.523,9.286-5.195,6.127-10.455,12.618-20.705,18.955-31.043,1.741-2.834,3.446-5.7,5.389-8.917a23.688,23.688,0,0,0-2.736-.321q-23.284.5-46.567,1.064c-1.2.029-2.383.386-3.638.423C348.394,1092.44,348.193,1091.821,347.99,1091.2Z" transform="translate(-94.191 -175.473)" fill="#9763d8"/>
    <path id="Path_4210" data-name="Path 4210" d="M147.014,509.273a6.74,6.74,0,0,1,1.7-.512q27.1-.751,54.194-1.437a9.869,9.869,0,0,1,1.415.216,24.951,24.951,0,0,1-1.183,2.542c-8.989,14.682-18.029,29.334-26.97,44.045-1.469,2.415-3.273,3.734-6.157,3.668-3.029-.069-6.063.065-9.178-.1,3.183-.212,6.449-.212,9.714-.212l.015-1.6c-4.465,0-8.93,0-13.124-.12,4.263-.239,8.278-.144,12.235-.584a6.537,6.537,0,0,0,4.355-2.43c8.313-13.214,16.427-26.554,24.567-39.876a21.17,21.17,0,0,0,1.176-2.929c-17.471.441-34.395.869-51.094,1.144,1.4-.343,2.583-.533,3.763-.723q-.015-.544-.031-1.089Z" transform="translate(-39.636 -83.757)" fill="#8f6adb"/>
    <path id="Path_4211" data-name="Path 4211" d="M270.3,1079.909c-4.783,9.056-9.566,18.119-14.779,27.991-3.117-5.654-5.759-10.382-8.343-15.146-6.073-11.191-12.068-22.425-18.214-33.572a5.9,5.9,0,0,1,.047-6.433c4.534-8.021,8.9-16.13,13.679-24.319a2.665,2.665,0,0,1,1.347,1.493c-3.949,7.5-7.742,14.812-11.815,21.958a7.441,7.441,0,0,0-.095,8.131c5.415,9.733,10.645,19.569,15.96,29.353,2.332,4.291,4.7,8.568,7.331,13.354,4.8-8.75,9.279-16.9,13.861-24.873C269.7,1078.656,270,1079.283,270.3,1079.909Z" transform="translate(-61.63 -159.008)" fill="#a35abf"/>
    <path id="Path_4212" data-name="Path 4212" d="M155.822,907.06c-5.822-.06-11.667.154-17.455-.326-2.1-.175-4.9-1.48-5.972-3.166-9.355-14.743-18.391-29.688-27.509-44.581-.363-.594-.593-1.268-1.2-2.594,14.965.428,29.451.841,44.036,1.483a61.015,61.015,0,0,1-6.982,1.773,57.507,57.507,0,0,1-5.835-.336c-4.178-.2-8.111-.24-12.383-.247-4.9.037-9.455.037-14.337.037a10.385,10.385,0,0,0,.591,1.647c8.5,13.857,16.978,27.727,25.6,41.51a5.077,5.077,0,0,0,3.465,1.9c5.675.494,11.375.71,17.327,1.174,4.546.148,8.831.148,13.116.148l-.02,1.576Z" transform="translate(-27.874 -141.48)" fill="#a657b6"/>
    <path id="Path_4213" data-name="Path 4213" d="M68.082,964.107c-4.621,8.719-9.243,17.44-14.24,26.867-4.95-9.129-9.436-17.4-13.919-25.67-4.27-7.879-8.63-15.71-12.71-23.686a6.071,6.071,0,0,1,.015-4.832c4.626-8.92,9.511-17.7,14.738-26.667a2.171,2.171,0,0,1,1.658.887c-4.538,8.561-8.953,16.91-13.546,25.158a5.486,5.486,0,0,0-.023,6c7.174,13.048,14.209,26.173,21.305,39.262.708,1.3,1.511,2.565,2.472,4.175,4.358-7.832,8.408-15.107,12.684-22.281C67.19,963.654,67.636,963.88,68.082,964.107Z" transform="translate(-6.982 -126.893)" fill="#af51a1"/>
    <path id="Path_4214" data-name="Path 4214" d="M162.051,324c-1.08.6-2.146,1.681-3.243,1.716-17.543.548-35.091.964-52.638,1.4a21.977,21.977,0,0,1-2.312-.243c.97-1.821,1.714-3.409,2.626-4.9,8.034-13.1,16.33-26.049,24.028-39.343,2.627-4.537,5.608-6.62,10.984-5.509a3.187,3.187,0,0,1-1.357,1.858,3.2,3.2,0,0,1-1.412-.178,5.72,5.72,0,0,0-2.169.472,23.208,23.208,0,0,0-3.057,3.34q-11.762,19-23.4,38.068c-.654,1.067-1.17,2.218-1.512,2.875,16.307,0,32.4,0,48.818.008,1.577.005,2.836,0,4.222.123A3.816,3.816,0,0,0,162.051,324Z" transform="translate(-27.921 -45.635)" fill="#8a6fdb"/>
    <path id="Path_4215" data-name="Path 4215" d="M362.766,674.471c-4.478.189-8.955.421-13.435.558-14.426.442-28.853.847-43.988,1.287.789-1.555,1.273-2.7,1.916-3.75,8.874-14.482,17.8-28.931,26.626-43.442,1.344-2.211,2.941-3.48,5.748-2.927a5.121,5.121,0,0,1-1.247,2.086,26.174,26.174,0,0,0-3.472,3.923q-11.787,19-23.437,38.074c-.536.874-.9,1.853-1.446,2.983a11.376,11.376,0,0,0,1.805.322q23.994-.508,47.989-1.071a20.223,20.223,0,0,1,2.827-.28C362.69,673.192,362.728,673.832,362.766,674.471Z" transform="translate(-82.614 -103.418)" fill="#8474db"/>
    <path id="Path_4216" data-name="Path 4216" d="M375.426,673.891a4.417,4.417,0,0,1-.256-2.427c9.1-15.026,18.074-29.522,26.946-43.852H351c.4-.582.792-1.164,1.317-1.928a3.951,3.951,0,0,1,1.551-.473q25.455-.617,50.912-1.195a10.4,10.4,0,0,1,1.647.264,12.3,12.3,0,0,1-.775,2.052q-13.862,22.637-27.79,45.233A9.915,9.915,0,0,1,375.426,673.891Z" transform="translate(-95.008 -103.109)" fill="#7c7bdb"/>
    <path id="Path_4217" data-name="Path 4217" d="M549.995,742.159q26.245-1.035,52.49-2.062c1.558-.06,3.121-.008,5.365-.008-.776,1.464-1.251,2.5-1.845,3.457-8.7,14.084-17.545,28.083-26.057,42.281-2.563,4.275-6.067,4.921-10.617,4.2a56.166,56.166,0,0,1,6.349-2.562,16.168,16.168,0,0,0,1.579-1.853q12.382-20.072,24.712-40.177a8.25,8.25,0,0,0,.73-1.768c-16.9,0-33.7,0-50.775-.007A12.849,12.849,0,0,1,549.995,742.159Z" transform="translate(-149.025 -122.283)" fill="#6a8dda"/>
    <path id="Path_4218" data-name="Path 4218" d="M49.424,902.43a11.934,11.934,0,0,0-1.549-.812c3.508-7.208,7.275-14.375,11.375-22.174.977,1.429,1.7,2.306,2.228,3.284,8.094,14.9,16.112,29.831,24.286,44.682a6.411,6.411,0,0,1-.073,7.047c-3.96,6.938-7.7,14-11.694,21.172a2.8,2.8,0,0,1-1.7-.886c3.57-7.29,7.275-14.252,11.116-21.137a4.912,4.912,0,0,0,.09-5.369C75.967,914.523,68.546,900.745,61.069,887a29.068,29.068,0,0,0-1.651-2.4Z" transform="translate(-12.724 -142.314)" fill="#aa53ab"/>
    <path id="Path_4219" data-name="Path 4219" d="M563.817,788.454a67.711,67.711,0,0,0-6.5,2.331,18.335,18.335,0,0,1-4.39.678q-20.5.535-41.008,1.01c-1.435.034-2.871.005-4.971.005,1.518-2.591,2.733-4.75,4.025-6.862q12.124-19.808,24.3-39.586A15.962,15.962,0,0,1,538.063,743a8.237,8.237,0,0,1,1.974,1.593c-1.022,1.239-2.347,2.185-3.143,3.461-6.531,10.477-12.971,21.01-19.422,31.536-1.994,3.254-3.939,6.537-6.179,10.262,1.611,0,2.567.019,3.522,0q22.7-.513,45.392-1.046C561.412,788.772,562.614,788.574,563.817,788.454Z" transform="translate(-137.34 -122.837)" fill="#7485db"/>
    <path id="Path_4220" data-name="Path 4220" d="M145.362,556.608h13.4l-.015,1.6c-3.265,0-6.531,0-10.037.143-14.961.644-29.681,1.147-45.2,1.676.972-1.833,1.5-2.978,2.157-4.048q13.184-21.532,26.426-43.028a14.029,14.029,0,0,1,2.862-2.926C137,510,138.8,510,140.6,510q.015.544.031,1.089a29.727,29.727,0,0,0-3.987.856,31.684,31.684,0,0,0-4.068,4.725q-11.458,18.5-22.774,37.1c-.6.984-1.083,2.039-1.505,2.84Z" transform="translate(-27.826 -84.229)" fill="#9763d8"/>
    <path id="Path_4221" data-name="Path 4221" d="M249.6,1020.62a14.04,14.04,0,0,0-1.242-1.45c3.909-7.846,8.012-15.6,12.512-24.1,3.458,6.331,6.472,11.817,9.455,17.325,5.538,10.214,10.969,20.494,16.642,30.635a7.277,7.277,0,0,1-.081,8.094c-3.719,6.375-7.154,12.91-10.885,19.554a4.7,4.7,0,0,1-1.126-2.113c3.1-6.149,6.161-11.934,9.4-17.624a7.306,7.306,0,0,0,.018-7.854c-6.325-11.467-12.522-23-18.773-34.511-1.41-2.594-2.852-5.173-4.541-8.233C256.935,1007.557,253.268,1014.085,249.6,1020.62Z" transform="translate(-67.146 -149.953)" fill="#9d5ecc"/>
    <path id="Path_4222" data-name="Path 4222" d="M153.991,1092.769c0-.561,0-1.122-.012-1.887,6.644-.087,13.3-.08,19.943.255a5.146,5.146,0,0,1,3.4,2.3c9.458,15.219,18.8,30.519,28.145,45.811a4.474,4.474,0,0,1,.429,1.224c-9.36,0-18.663,0-28.279-.058a2.148,2.148,0,0,1,.663-1.887c7.964-.24,15.5-.24,23.4-.24A23.141,23.141,0,0,0,200.65,1136c-8.153-13.332-16.236-26.716-24.606-39.91-.941-1.486-3.468-2.564-5.357-2.732C165.148,1092.864,159.56,1092.922,153.991,1092.769Z" transform="translate(-41.526 -175.948)" fill="#aa53ab"/>
    <path id="Path_4223" data-name="Path 4223" d="M336.31,1092.07a4.131,4.131,0,0,1,.775,2.171c-9.073,14.9-18.077,29.419-27.369,44.405h27.925c4.932-.153,9.526-.306,14.432-.532,1.591-.058,2.869-.044,4.148-.029,2.079.444,4.157.889,6.588,1.348-2.623.313-5.593.809-8.575.9-15.157.466-30.319.823-45.478,1.209-.834.015-1.672-.1-2.919-.182a19.1,19.1,0,0,1,1.109-2.717q13.5-22.031,27.059-44A13.494,13.494,0,0,1,336.31,1092.07Z" transform="translate(-82.749 -176.283)" fill="#9d5ecc"/>
    <path id="Path_4224" data-name="Path 4224" d="M49.669,437.171c-.255-.649-.511-1.3-.82-2.211,3.456-7.027,6.966-13.792,10.826-21.234,2.1,3.792,3.9,6.994,5.654,10.227,6.989,12.908,13.918,25.847,20.983,38.714a5.086,5.086,0,0,1,.082,5.67c-3.971,6.949-7.724,14.022-11.74,21.215a4.859,4.859,0,0,1-1.131-2.089C76.8,480.877,80,474.63,83.5,468.549a5.328,5.328,0,0,0,.056-5.981C76.081,449,68.747,435.357,61.347,421.75a26.651,26.651,0,0,0-1.685-2.386Z" transform="translate(-12.989 -66.885)" fill="#9763d8"/>
    <path id="Path_4225" data-name="Path 4225" d="M154.993,860.032c2.252-.5,4.5-1,6.981-1.668a1.335,1.335,0,0,1,.585-.223c13.187-.543,13.155-.524,19.987,10.672,7.193,11.787,14.456,23.532,21.681,35.3.757,1.232,1.469,2.492,2.111,3.587-12.064,0-24.073,0-36.336-.106,3.893-.106,8.039-.106,12.185-.106l.02-1.576c-4.285,0-8.57,0-12.779-.214,10.732-.214,21.389-.214,32.8-.214-9.063-14.784-17.531-28.759-26.261-42.568-.812-1.284-3.244-2-5-2.149C165.66,860.3,160.319,860.247,154.993,860.032Z" transform="translate(-41.802 -141.843)" fill="#9d5ecc"/>
    <path id="Path_4226" data-name="Path 4226" d="M154,278.419a14.162,14.162,0,0,0,1.438-1.766,3.854,3.854,0,0,1,1.777-.571q23.424-.586,46.849-1.126c.594-.014,1.19.082,2.425.175-2.613,4.293-5.023,8.272-7.452,12.24Q188.8,304.1,178.528,320.8a6.44,6.44,0,0,1-2.471,2.194c-.654-.452-.928-.708-1.086-1.179C184.091,307,193.1,292.4,202.481,277.19c-2.362.114-3.791.213-5.223.246Q175.629,277.937,154,278.419Z" transform="translate(-41.531 -45.404)" fill="#8178db"/>
    <path id="Path_4227" data-name="Path 4227" d="M157.981,976.391c0-.517-.009-1.033-.028-1.809,7.113-.538,14.238-.954,21.368-1.062,9.187-.14,18.378-.034,28.045-.034-9.479,15.412-19.064,31-28.919,46.635a1.223,1.223,0,0,0-.524.6s0,.051,0,.073a5.535,5.535,0,0,1-1.384-1.158c8.7-14.739,17.541-29.139,26.745-44.138-3.407,0-5.8-.047-8.193.008Q176.536,975.925,157.981,976.391Z" transform="translate(-42.605 -144.083)" fill="#a35abf"/>
    <path id="Path_4228" data-name="Path 4228" d="M783.68,433.076c-.818-1.2-1.8,3.544-2.24-.424,7.747-13.038,15.419-25.614,23.391-38.682-5.662,0-10.6,0-15.853-.008-1.569.019-2.828.045-4.286.124a8.477,8.477,0,0,1-1.281-.049,5.8,5.8,0,0,0-1.091.088c-3.463.15-6.626.242-10.029.17-5.625-.164-11.011-.164-16.4-.164q.007.191.013.383c.349.1.7.2.776.419-1.665.24-3.061.369-4.457.5a9.9,9.9,0,0,1-2.134-1.08,2.757,2.757,0,0,1,1.656-1.244c1.62-.059,2.811-.2,4-.339q25.653-.805,51.307-1.6a15.71,15.71,0,0,1,2.289.425C800.7,405.614,792.283,419.266,783.68,433.076Z" transform="translate(-203.342 -64.91)" fill="#3cbbda"/>
    <path id="Path_4229" data-name="Path 4229" d="M133.322,46.88a4.171,4.171,0,0,1,1.042,1.7c-8.675,14.774-17.484,29.168-26.589,44.046,2.938,0,5.074.04,7.209-.007q18.869-.415,37.736-.863c0,.476.005.953.013,1.668-6.994.538-13.991.984-20.993,1.1-9.189.149-18.383.036-28.085.036C113.46,78.715,123.282,62.842,133.322,46.88Z" transform="translate(-27.866 -12.454)" fill="#7c7bdb"/>
    <path id="Path_4230" data-name="Path 4230" d="M536.649,977.153a24.648,24.648,0,0,1,.465,2.983c-8.444,14.281-17.033,28.276-25.777,42.534,5.537,0,10.574.051,15.611-.015,10.4-.138,20.8-.342,31.2-.517a13.71,13.71,0,0,0-2.32,1.69c-10.776.6-21.54,1-32.308,1.26-5.3.131-10.6.022-16.532.022C516.871,1009.069,526.658,993.178,536.649,977.153Z" transform="translate(-137.352 -145.089)" fill="#8178db"/>
    <path id="Path_4231" data-name="Path 4231" d="M939.7,977.491a7.861,7.861,0,0,1,1.186,2.018c-8.54,14.468-17.241,28.66-25.943,42.86h37.269c1.767.517,3.534,1.042,5.522,1.719-15.437.678-31.094,1.209-47.892,1.77C920.165,1009.087,929.841,993.362,939.7,977.491Z" transform="translate(-246.705 -145.181)" fill="#4fa8db"/>
    <path id="Path_4232" data-name="Path 4232" d="M51.19,667.275c-.62.032-1.239.063-2.064.09,3.255-6.641,6.715-13.279,10.4-20.347a18.183,18.183,0,0,1,1.729,2.163c8.338,15.313,16.736,30.6,24.847,46.03a8.2,8.2,0,0,1-.052,6.362c-2.379,5.154-5.36,10.03-8.316,15.2a3.674,3.674,0,0,1-2.169-.074c2.413-5.034,4.9-9.884,7.648-14.578a6.653,6.653,0,0,0,.093-7.4c-5.829-10.462-11.431-21.049-17.142-31.578-1.932-3.561-3.934-7.084-6.248-11.241Z" transform="translate(-13.064 -105.213)" fill="#a35abf"/>
    <path id="Path_4233" data-name="Path 4233" d="M129.981,624.944a25.793,25.793,0,0,0,3.772,1.423c1.217.233,2.513.052,3.791.6l-3.648.209c-8.79.036-16.948.036-25.109.036,0,.393-.09.678.013.846,8.622,14.147,17.228,28.3,25.968,42.378a4.82,4.82,0,0,0,3.319,1.695c5.152.465,10.326.68,15.423,1.263a64.809,64.809,0,0,1-7.083,1.076c-11.726.409-11.76.43-17.916-9.516Q117.153,646.6,105.9,628.181c-.667-1.089-1.2-2.262-1.748-3.316C112.859,624.865,121.275,624.865,129.981,624.944Z" transform="translate(-28.002 -103.261)" fill="#9d5ecc"/>
    <path id="Path_4234" data-name="Path 4234" d="M580.606,556.563a3.889,3.889,0,0,1-2.269-1.182c1.112-1.455,2.236-2.424,2.98-3.627q11.836-19.146,23.56-38.362c.589-.963,1.064-2,1.821-3.431H595.342a4.982,4.982,0,0,0-.76.056,13.155,13.155,0,0,1-1.383-.032,4.806,4.806,0,0,0-.884.067c-.732.025-1.22,0-1.985-.036a6.137,6.137,0,0,0-1.12.085c-3.428.159-6.559.257-9.69.355-4.528-.166-9.059-.294-13.583-.526a12.745,12.745,0,0,1-3.806-.939c16.066-.784,32.222-1.3,49.354-1.85-2.726,4.521-4.917,8.2-7.156,11.857Q593.8,536.18,583.221,553.334A21.75,21.75,0,0,1,580.606,556.563Z" transform="translate(-152.32 -83.795)" fill="#5b9ddb"/>
    <path id="Path_4235" data-name="Path 4235" d="M535.6,48.685a5.762,5.762,0,0,1,1.209,1.839c-8.4,14.266-16.961,28.234-25.753,42.572,2.277,0,3.931.023,5.583,0q15.933-.268,31.867-.555a13.958,13.958,0,0,0-2.332,1.749c-12.931.714-25.853,1.169-39.864,1.662C516.39,79.621,525.893,64.228,535.6,48.685Z" transform="translate(-137.168 -12.944)" fill="#4fa8db"/>
    <path id="Path_4236" data-name="Path 4236" d="M735.11,868.3a6.592,6.592,0,0,1,1.384,1.57c-7.574,12.951-15.339,25.714-22.978,38.271h36.305c.829.56,1.659,1.121,2.67,1.837-14.068.619-28.318,1.081-42.568,1.542l-.823-.941c8.619-14.03,17.237-28.061,26.009-42.28m12.959,40.954Z" transform="translate(-192.215 -144.274)" fill="#6295db"/>
    <path id="Path_4237" data-name="Path 4237" d="M148.084,793.156a5.091,5.091,0,0,1-.589,1.563c-14.6.56-28.984,1.087-44.576,1.659C111.5,782.5,119.535,769.5,127.728,756.3a2.611,2.611,0,0,1,2,.53c-7.229,12.25-14.488,24.135-21.931,36.322Z" transform="translate(-27.666 -125.937)" fill="#a35abf"/>
    <path id="Path_4238" data-name="Path 4238" d="M162.524,692.565c2.087-.375,4.425-.642,7.075-1.225.637-.291.964-.264,1.291.013.015.583.028.916.043,1.249C168.214,692.626,165.494,692.651,162.524,692.565Z" transform="translate(-43.846 -118.27)" fill="#9763d8"/>
    <path id="Path_4239" data-name="Path 4239" d="M987.983,1040.668a17.475,17.475,0,0,1,2.878-1.588A16.942,16.942,0,0,1,987.983,1040.668Z" transform="translate(-267.918 -161.899)" fill="#4fa8db"/>
    <path id="Path_4240" data-name="Path 4240" d="M756.164,393.267a20.416,20.416,0,0,1-3.5.417A20.4,20.4,0,0,1,756.164,393.267Z" transform="translate(-204.04 -67.272)" fill="#43b3da"/>
    <path id="Path_4241" data-name="Path 4241" d="M577.176,111.152a30.04,30.04,0,0,1,3.577-.14A29.724,29.724,0,0,1,577.176,111.152Z" transform="translate(-156.404 -29.863)" fill="#4fa8db"/>
    <path id="Path_4242" data-name="Path 4242" d="M174.338,692.608c-.27-.376-.284-.709-.029-1.332a4.97,4.97,0,0,1,1.9-.278c-.007.365-.014.73-.042,1.368A3.349,3.349,0,0,1,174.338,692.608Z" transform="translate(-46.995 -118.236)" fill="#9d5ecc"/>
    <path id="Path_4243" data-name="Path 4243" d="M145.58,45.286a1.582,1.582,0,0,1-.552,1.071A1.582,1.582,0,0,1,145.58,45.286Z" transform="translate(-39.096 -12.021)" fill="#7c7bdb"/>
    <path id="Path_4244" data-name="Path 4244" d="M548.584,976.069c.045.179-.082.42-.382.663C548.157,976.533,548.284,976.332,548.584,976.069Z" transform="translate(-148.536 -144.795)" fill="#8178db"/>
    <path id="Path_4245" data-name="Path 4245" d="M185.557,1038.131a.316.316,0,0,1,.2-.4C185.847,1037.839,185.7,1038.1,185.557,1038.131Z" transform="translate(-50.093 -161.533)" fill="#aa53ab"/>
    <path id="Path_4246" data-name="Path 4246" d="M147.812,974.861c.076.061-.241.1-.4.115C147.362,974.8,147.522,974.737,147.812,974.861Z" transform="translate(-39.741 -144.449)" fill="#a35abf"/>
    <path id="Path_4247" data-name="Path 4247" d="M182.627,339.57a7.947,7.947,0,0,1,.951,1.023c.127.255.005.375-.07.408s-.37-.158-.53-.514c-.211-.507-.261-.656-.326-.833A.371.371,0,0,1,182.627,339.57Z" transform="translate(-49.303 -58.024)" fill="#8a6fdb"/>
    <path id="Path_4248" data-name="Path 4248" d="M584.946,1041.114c.034-.08.164-.095.489-.124.2-.015-.06.2-.06.2A1.266,1.266,0,0,1,584.946,1041.114Z" transform="translate(-158.513 -162.417)" fill="#8178db"/>
    <path id="Path_4307" data-name="Path 4307" d="M579.372,108.4a14.842,14.842,0,0,1,3.12-.377A14.839,14.839,0,0,1,579.372,108.4Z" transform="translate(-157 -29.051)" fill="#4fa8db"/>
    <path id="Path_4309" data-name="Path 4309" d="M165.369,806.7c2.135-.252,4.6-.49,7.4-.686C170.631,806.276,168.167,806.5,165.369,806.7Z" transform="translate(-44.618 -138.032)" fill="#a35abf"/>
    <path id="Path_4315" data-name="Path 4315" d="M144.621,1093.048c-.008.058-.248.1-.594.073C144.077,1093.041,144.233,1093.033,144.621,1093.048Z" transform="translate(-38.825 -176.547)" fill="#aa53ab"/>
    <path id="Path_4325" data-name="Path 4325" d="M142.149,860.326c-3.671.081-7.588.012-11.774-.171C134.038,860.085,137.971,860.131,142.149,860.326Z" transform="translate(-35.119 -147.354)" fill="#9d5ecc"/>
    <path id="Path_4328" data-name="Path 4328" d="M177.36,340.655c.906-.282,2.127-.556,3.613-.874.315.106.365.256.45.641A21.128,21.128,0,0,1,177.36,340.655Z" transform="translate(-47.873 -58.082)" fill="#8178db"/>
    <path id="Path_4329" data-name="Path 4329" d="M151.08,279.539a4.233,4.233,0,0,1-1.712.326A4.248,4.248,0,0,1,151.08,279.539Z" transform="translate(-40.275 -47.771)" fill="#8178db"/>
    <path id="Path_4332" data-name="Path 4332" d="M349.492,1155.8c4.263-.2,8.864-.393,13.792-.525C359.018,1155.5,354.424,1155.652,349.492,1155.8Z" transform="translate(-94.599 -193.442)" fill="#9763d8"/>
    <path id="Path_4333" data-name="Path 4333" d="M774.453,395.4c-4.717.347-9.674.529-14.984.619-.7-.2-1.05-.3-1.4-.4q-.007-.191-.013-.383C763.442,395.235,768.828,395.235,774.453,395.4Z" transform="translate(-205.504 -67.593)" fill="#4fa8db"/>
    <path id="Path_4334" data-name="Path 4334" d="M802.032,395c-1,.091-2.305.174-3.85.164C799.2,395.048,800.462,395.022,802.032,395Z" transform="translate(-216.396 -67.581)" fill="#4fa8db"/>
    <path id="Path_4335" data-name="Path 4335" d="M795.576,395.106c-.005.071-.274.126-.667.106C794.961,395.121,795.136,395.107,795.576,395.106Z" transform="translate(-215.507 -67.601)" fill="#4fa8db"/>
    <path id="Path_4336" data-name="Path 4336" d="M600.579,511.086c0,.068-.284.126-.694.1C599.938,511.1,600.121,511.087,600.579,511.086Z" transform="translate(-162.568 -87.496)" fill="#6791db"/>
    <path id="Path_4337" data-name="Path 4337" d="M604.572,511.043c-.007.058-.227.111-.546.09C604.072,511.052,604.215,511.044,604.572,511.043Z" transform="translate(-163.692 -87.489)" fill="#6791db"/>
    <path id="Path_4338" data-name="Path 4338" d="M607.544,511.01c.176,0-.071.175-.071.175a.987.987,0,0,1-.38-.092C607.016,511.023,607.368,511.01,607.544,511.01Z" transform="translate(-164.522 -87.479)" fill="#6791db"/>
    <path id="Path_4339" data-name="Path 4339" d="M762.529,924.547Z" transform="translate(-206.715 -158.426)" fill="#589fda"/>
  </g>
</svg>
